<svg xmlns="http://www.w3.org/2000/svg" width="52.988" height="50"><path fill="none" stroke="#000" stroke-linecap="round" stroke-linejoin="round" stroke-width="3.88416" d="M5.805 48.059H47.18a3.886 3.886 0 0 0 3.422-5.727L29.914 3.914c-1.469-2.723-5.375-2.723-6.84 0L2.387 42.332a3.876 3.876 0 0 0 .086 3.832 3.875 3.875 0 0 0 3.332 1.895Zm0 0"/><path fill="none" stroke="#000" stroke-linecap="round" stroke-linejoin="round" stroke-width="3.88416" d="m25.797 17.61.695 14.808.696-14.805a.69.69 0 0 0-.7-.727.692.692 0 0 0-.691.723Zm0 0"/><path d="M26.492 42.11a2.426 2.426 0 0 1-2.426-2.426 2.427 2.427 0 1 1 2.426 2.426Zm0 0"/></svg>