<?xml version="1.0" encoding="UTF-8"?>
<svg xmlns="http://www.w3.org/2000/svg" xmlns:xlink="http://www.w3.org/1999/xlink" width="15" height="15" viewBox="0 0 15 15">
<path fill-rule="nonzero" fill="rgb(24.705882%, 24.705882%, 24.705882%)" fill-opacity="1" d="M 3.039062 11.074219 L 3.804688 11.835938 L 2.628906 12.3125 Z M 3.039062 11.074219 "/>
<path fill-rule="nonzero" fill="rgb(95.686275%, 66.666669%, 25.490198%)" fill-opacity="1" d="M 3.757812 8.722656 L 7.679688 4.800781 L 10.039062 7.15625 L 6.148438 11.046875 "/>
<path fill-rule="nonzero" fill="rgb(64.705884%, 47.450981%, 22.352941%)" fill-opacity="1" d="M 3.003906 10.953125 L 3.734375 9.039062 L 5.796875 11.101562 L 3.886719 11.835938 "/>
<path fill-rule="nonzero" fill="rgb(91.764706%, 35.294119%, 27.843139%)" fill-opacity="1" d="M 8.941406 3.539062 L 10.503906 1.976562 L 12.863281 4.335938 L 11.3125 5.882812 "/>
<path fill-rule="nonzero" fill="rgb(60.784316%, 60.784316%, 60.392159%)" fill-opacity="1" d="M 7.425781 5.054688 L 9.027344 3.453125 L 11.382812 5.8125 L 9.796875 7.398438 "/>
<path fill="none" stroke-width="2" stroke-linecap="round" stroke-linejoin="round" stroke="rgb(0%, 0%, 0%)" stroke-opacity="1" stroke-miterlimit="10" d="M 18.6375 56.8125 L 27.825 53.2875 L 53.8125 27.3 L 43.9125 17.4 L 17.925 43.3875 L 14.38125 52.59375 Z M 47.34375 13.9875 L 50.83125 10.48125 L 60.73125 20.38125 L 57.2625 23.85 M 18.5625 42.76875 L 28.4625 52.66875 " transform="matrix(0.208333, 0, 0, 0.208333, 0, 0)"/>
<path fill="none" stroke-width="2" stroke-linecap="round" stroke-linejoin="round" stroke="rgb(0%, 0%, 0%)" stroke-opacity="1" stroke-miterlimit="10" d="M 14.4 52.575 L 11.90625 59.30625 L 18.65625 56.8125 M 36.91875 25.0125 L 46.425 34.51875 " transform="matrix(0.208333, 0, 0, 0.208333, 0, 0)"/>
</svg>
