<svg xmlns="http://www.w3.org/2000/svg" width="49.967" height="50"><path fill-rule="evenodd" d="M47.715 14.563a.985.985 0 0 1-.2.3L17.169 45.211a1.038 1.038 0 0 1-.52.473L1.586 49.902c-.031.016-.066.02-.102.028l-.05.015c-.012.004-.02.004-.028.004a1.215 1.215 0 0 1-.312.051c-.102 0-.207-.016-.305-.043-.023-.008-.043-.004-.066-.012l-.024-.015a.883.883 0 0 1-.261-.153c-.043-.03-.086-.058-.122-.093-.035-.036-.062-.079-.093-.121A.977.977 0 0 1 .07 49.3c-.008-.008-.011-.016-.015-.024-.008-.02-.004-.043-.012-.066A1.148 1.148 0 0 1 0 48.906c0-.11.023-.21.05-.312.005-.008 0-.016.005-.024l.015-.054c.012-.032.012-.07.028-.102l4.218-15.062c.09-.239.27-.399.473-.52L34.672 2.945c.043-.047.098-.09.14-.136l.325-.325c.015-.015.039-.023.054-.039C36.761.945 38.871 0 41.215 0c4.836 0 8.754 3.918 8.754 8.75 0 2.242-.867 4.266-2.254 5.813Zm-4.11 1.207-3.937-3.938-25.707 25.711c.004.012.016.012.02.023l2.578 5.25ZM2.723 47.277l3.03-.843L3.57 44.25Zm1.504-5.375 3.87 3.871 6.657-1.863s-2.813-5.844-2.816-5.847l-5.844-2.817Zm8.21-5.879c.008.004.012.016.02.02l25.711-25.711-3.938-3.937L7.188 33.44ZM41.184 2.176c-1.942 0-3.668.844-4.883 2.168l-.008-.008-.559.559 9.371 9.37.575-.574-.008-.004c1.316-1.214 2.152-2.937 2.152-4.867a6.64 6.64 0 0 0-6.64-6.644Zm0 0"/></svg>