<?xml version="1.0" encoding="UTF-8"?>
<svg xmlns="http://www.w3.org/2000/svg" xmlns:xlink="http://www.w3.org/1999/xlink" width="15" height="15" viewBox="0 0 15 15">
<path fill-rule="nonzero" fill="rgb(98.823529%, 76.078433%, 10.588235%)" fill-opacity="1" d="M 11.855469 4.859375 C 11.851562 2.363281 9.828125 0.347656 7.335938 0.351562 C 4.84375 0.355469 2.828125 2.378906 2.832031 4.867188 C 2.832031 5.957031 3.367188 6.910156 3.949219 7.804688 C 4.5625 8.746094 4.976562 9.648438 5.4375 10.65625 C 5.710938 11.246094 6.449219 11.476562 7.09375 11.523438 C 7.722656 11.5625 8.523438 11.492188 9.050781 11.0625 C 9.875 10.386719 9.894531 9.09375 10.4375 8.234375 C 11.101562 7.179688 11.855469 6.160156 11.855469 4.859375 Z M 11.855469 4.859375 "/>
<path fill-rule="nonzero" fill="rgb(47.058824%, 63.921571%, 67.843139%)" fill-opacity="1" d="M 8.570312 14.058594 C 8.636719 14.007812 8.695312 13.949219 8.734375 13.863281 C 8.78125 13.757812 8.765625 13.660156 8.753906 13.546875 C 8.746094 13.453125 8.753906 13.410156 8.820312 13.347656 C 8.890625 13.273438 8.964844 13.207031 8.980469 13.097656 C 8.988281 13.015625 8.972656 12.9375 8.957031 12.859375 C 8.949219 12.832031 8.941406 12.804688 8.941406 12.773438 C 8.960938 12.710938 9.039062 12.667969 9.082031 12.625 C 9.195312 12.519531 9.296875 12.367188 9.332031 12.214844 C 9.351562 12.117188 9.347656 11.980469 9.285156 11.898438 C 9.195312 11.777344 9.074219 11.828125 8.960938 11.878906 C 8.921875 11.894531 8.890625 11.914062 8.851562 11.933594 C 8.140625 12.277344 7.300781 12.277344 6.546875 12.085938 C 6.351562 12.039062 6.160156 11.980469 5.980469 11.898438 C 5.839844 11.832031 5.640625 11.757812 5.542969 11.933594 C 5.460938 12.082031 5.5 12.277344 5.5625 12.425781 C 5.597656 12.511719 5.671875 12.589844 5.738281 12.65625 C 5.796875 12.71875 5.824219 12.753906 5.808594 12.835938 C 5.789062 12.910156 5.800781 12.972656 5.808594 13.046875 C 5.820312 13.152344 5.832031 13.25 5.902344 13.332031 C 5.964844 13.414062 6.0625 13.476562 6.117188 13.5625 C 6.167969 13.636719 6.167969 13.734375 6.195312 13.820312 C 6.246094 13.953125 6.363281 14.097656 6.484375 14.179688 C 6.621094 14.273438 6.804688 14.265625 6.921875 14.390625 C 7.078125 14.550781 7.300781 14.667969 7.53125 14.65625 C 7.8125 14.636719 7.960938 14.421875 8.175781 14.273438 C 8.257812 14.214844 8.363281 14.191406 8.453125 14.136719 C 8.492188 14.109375 8.53125 14.085938 8.570312 14.058594 Z M 8.570312 14.058594 "/>
</svg>
