<?xml version="1.0" encoding="UTF-8"?>
<svg xmlns="http://www.w3.org/2000/svg" xmlns:xlink="http://www.w3.org/1999/xlink" width="15" height="15" viewBox="0 0 15 15">
<path fill-rule="nonzero" fill="rgb(84.313726%, 9.803922%, 10.980392%)" fill-opacity="1" d="M 5.25 10.625 L 7.5 8.375 L 9.75 10.625 L 10.625 9.75 L 8.375 7.5 L 10.625 5.25 L 9.75 4.375 L 7.5 6.625 L 5.25 4.375 L 4.375 5.25 L 6.625 7.5 L 4.375 9.75 Z M 7.5 13.75 C 6.636719 13.75 5.824219 13.585938 5.0625 13.257812 C 4.300781 12.929688 3.640625 12.484375 3.078125 11.921875 C 2.515625 11.359375 2.070312 10.699219 1.742188 9.9375 C 1.414062 9.175781 1.25 8.363281 1.25 7.5 C 1.25 6.636719 1.414062 5.824219 1.742188 5.0625 C 2.070312 4.300781 2.515625 3.640625 3.078125 3.078125 C 3.640625 2.515625 4.300781 2.070312 5.0625 1.742188 C 5.824219 1.414062 6.636719 1.25 7.5 1.25 C 8.363281 1.25 9.175781 1.414062 9.9375 1.742188 C 10.699219 2.070312 11.359375 2.515625 11.921875 3.078125 C 12.484375 3.640625 12.929688 4.300781 13.257812 5.0625 C 13.585938 5.824219 13.75 6.636719 13.75 7.5 C 13.75 8.363281 13.585938 9.175781 13.257812 9.9375 C 12.929688 10.699219 12.484375 11.359375 11.921875 11.921875 C 11.359375 12.484375 10.699219 12.929688 9.9375 13.257812 C 9.175781 13.585938 8.363281 13.75 7.5 13.75 Z M 7.5 13.75 "/>
</svg>
