<?xml version="1.0" encoding="UTF-8"?>
<svg xmlns="http://www.w3.org/2000/svg" xmlns:xlink="http://www.w3.org/1999/xlink" width="15" height="15" viewBox="0 0 15 15">
<path fill-rule="nonzero" fill="rgb(26.666668%, 72.156864%, 42.352942%)" fill-opacity="1" d="M 13.019531 2.730469 L 11.984375 2.027344 C 11.699219 1.832031 11.308594 1.90625 11.113281 2.191406 L 6.046875 9.667969 L 3.714844 7.335938 C 3.46875 7.09375 3.074219 7.09375 2.832031 7.335938 L 1.945312 8.222656 C 1.828125 8.339844 1.761719 8.5 1.761719 8.664062 C 1.761719 8.832031 1.828125 8.992188 1.945312 9.109375 L 5.527344 12.691406 C 5.730469 12.890625 6.042969 13.046875 6.328125 13.046875 C 6.613281 13.046875 6.898438 12.867188 7.082031 12.601562 L 13.1875 3.597656 C 13.378906 3.3125 13.304688 2.921875 13.019531 2.730469 Z M 13.019531 2.730469 "/>
</svg>
