<?xml version="1.0" encoding="UTF-8"?>
<svg xmlns="http://www.w3.org/2000/svg" xmlns:xlink="http://www.w3.org/1999/xlink" width="15" height="15" viewBox="0 0 15 15">
<path fill-rule="nonzero" fill="rgb(26.666668%, 72.156864%, 42.352942%)" fill-opacity="1" d="M 12.5 7.394531 C 12.15625 7.394531 11.875 7.671875 11.875 8.019531 L 11.875 11.5 C 11.875 11.707031 11.707031 11.875 11.5 11.875 L 3.5 11.875 C 3.292969 11.875 3.125 11.707031 3.125 11.5 L 3.125 3.5 C 3.125 3.292969 3.292969 3.125 3.5 3.125 L 9.480469 3.125 C 9.828125 3.125 10.105469 2.84375 10.105469 2.5 C 10.105469 2.15625 9.828125 1.875 9.480469 1.875 L 3.5 1.875 C 2.605469 1.878906 1.878906 2.605469 1.875 3.5 L 1.875 11.5 C 1.878906 12.394531 2.605469 13.121094 3.5 13.125 L 11.5 13.125 C 12.394531 13.121094 13.121094 12.394531 13.125 11.5 L 13.125 8.019531 C 13.125 7.671875 12.84375 7.394531 12.5 7.394531 Z M 12.5 7.394531 "/>
<path fill-rule="nonzero" fill="rgb(26.666668%, 72.156864%, 42.352942%)" fill-opacity="1" d="M 6.699219 6.875 C 6.457031 6.65625 6.085938 6.660156 5.851562 6.886719 C 5.613281 7.113281 5.589844 7.484375 5.800781 7.738281 L 7.1875 9.195312 C 7.304688 9.316406 7.46875 9.386719 7.636719 9.386719 C 7.808594 9.386719 7.96875 9.320312 8.085938 9.199219 L 12.324219 4.824219 C 12.566406 4.578125 12.5625 4.179688 12.3125 3.9375 C 12.0625 3.695312 11.667969 3.703125 11.425781 3.949219 L 7.644531 7.863281 Z M 6.699219 6.875 "/>
</svg>
