<svg xmlns="http://www.w3.org/2000/svg" width="48" height="48"><path fill="#fcea2b" d="M24 1.116c-12.682 0-23 10.318-23 23s10.318 23 23 23 23-10.318 23-23-10.318-23-23-23z"/><g transform="translate(-12 -12)"><circle cx="36" cy="36" r="23" fill="none" stroke="#000" stroke-miterlimit="10" stroke-width="2"/><path fill="none" stroke="#000" stroke-linecap="round" stroke-linejoin="round" stroke-miterlimit="10" stroke-width="2" d="M26.5 46c1.877-2.55 5.824-4.123 10-3.992 3.834.12 7.293 1.658 9 3.992M22.5 23.077c.413.344 2.246 1.792 4.91 1.637 2.16-.126 3.61-1.233 4.09-1.637M40.5 23.077c.413.344 2.246 1.792 4.91 1.637 2.16-.126 3.61-1.233 4.09-1.637"/><path d="M30 31a3.001 3.001 0 0 1-6 0c0-1.655 1.345-3 3-3s3 1.345 3 3M48 31a3.001 3.001 0 0 1-6 0c0-1.655 1.345-3 3-3s3 1.345 3 3"/></g></svg>