<svg xmlns="http://www.w3.org/2000/svg" xml:space="preserve" width="512.04" height="553.725" viewBox="0 0 135.477 146.506"><path d="m50.62 193.648-1.88-.273-2.214-1.09-2.216-1.091-1.663-1.779-1.663-1.778-.888-1.938-.887-1.939-.335-2.416-.335-2.415.1-37.527.101-37.527.896-2.298.897-2.299 1.29-1.935 1.29-1.935 2.116-2.087 2.117-2.087h2.193l.745.744.744.745v2.193l-1.999 2.02-1.999 2.02v.84l29.637 25.601 29.636 25.601 25.562-22.077 25.562-22.078.154-.25.154-.249-.892-.053-.892-.054-.75-.75-.75-.749-.176-13.366-.177-13.367-1.068-1.52-1.068-1.518-1.52-1.068-1.52-1.069h-85.25l-1.52 1.069-1.52 1.068-1.068 1.519-1.068 1.519-.177 11.955-.176 11.956-.774.774-.775.773H54.4l-.774-.773-.774-.774-.104-9.887-.104-9.887.338-2.441.339-2.442.887-1.938.888-1.939 1.663-1.778 1.663-1.778 2.18-1.074 2.181-1.073 2.266-.328 2.267-.327h77.964l2.266.327 2.267.328 2.18 1.073 2.18 1.074 1.664 1.778 1.663 1.778.888 1.939.887 1.938.337 2.43.336 2.43-.102 11.304-.102 11.303.588-.425.587-.426 2.476-2.117 2.475-2.116.024-.323.023-.323-2.116-2.204-2.117-2.205v-1.432l.823-.957.823-.957 1.137.032 1.137.032 1.313 1.17 1.314 1.17 1.33 1.587 1.33 1.587 1.222 2.516 1.222 2.516.337 2.6.337 2.599.004 36.16.004 36.16-.327 2.266-.328 2.266-1.073 2.18-1.073 2.18-1.779 1.664-1.778 1.663-1.932.885-1.932.884-2.202.319-2.202.318-53.445-.037-53.446-.036-1.88-.274zm112.111-5.622.52-.328-.167-.144-.166-.144-20.461-15.252-20.461-15.253-.677-.654-.676-.655v-2.195l.745-.745.745-.745h2.077l21.607 16.142 21.606 16.141.3-.472.299-.472.193-1.058.194-1.059-.1-38.302-.1-38.303-30.163 26.071-30.163 26.072-.79.315-.79.315-.704-.26-.703-.261-30.017-25.923-30.017-25.924-.328-.117-.327-.118v77.559l.822 1.555.822 1.555.325-.098.324-.098 20.749-16.483 20.748-16.483.72-.266.718-.267.93.446.931.447.448.934.448.934-.327.86-.327.862-19.697 15.625-19.696 15.625-.517.48-.517.48 55.55-.005 55.55-.005zm-61.726-60.542-1.94-.51-2.646-1.283-2.646-1.284-2.646-2.681-2.645-2.682-1.148-2.293-1.147-2.293-.75-2.99-.75-2.99.175-4.065.175-4.066.943-2.822.943-2.822 1.628-2.407 1.628-2.406 1.951-1.59 1.952-1.59 1.732-.877 1.731-.878 2.669-.682 2.668-.683 2.678.006 2.677.006 2.47.517 2.47.517 2.943 1.451 2.945 1.451 2.034 2.034 2.034 2.034 1.247 2.494 1.248 2.494.432 2.561.432 2.562-.174 3.548-.173 3.549-.755 1.968-.754 1.968-1.236 1.444-1.236 1.443-1.586.606-1.587.606-1.955-.201-1.954-.202-1.109-.702-1.108-.702-1.39.709-1.39.709-2.511.186-2.512.187-1.587-.43-1.588-.43-1.802-1.816-1.803-1.815-.785-2.117-.785-2.117-.013-2.77-.014-2.769 1.19-2.33 1.19-2.33 1.514-1.153 1.514-1.152 1.485-.402 1.484-.402 2.124.169 2.123.168 1.81.917 1.81.917 1.102 1.335 1.103 1.336.35 1.293.35 1.294-.405.887-.404.888-1.061.439-1.061.44-.922-.516-.922-.516-.63-1.335-.632-1.335-1.21-.505-1.209-.505-1.158.012-1.158.013-.815.452-.815.452-.682 1.035-.682 1.034-.003 2.162-.002 2.162.52 1.245.52 1.245.98.776.979.776 2.11-.188 2.11-.188.624-.77.624-.771v-1.686l.706-.706.705-.705h2.418l.731.93.732.929v1.971l.573.573.573.574 1.098-.108 1.098-.107.876-1.587.875-1.588.138-3.37.137-3.37-.577-2.274-.578-2.275-1.25-1.826-1.25-1.827-1.827-1.257-1.827-1.257-2.116-.742-2.115-.743-2.54-.192-2.54-.192-2.224.436-2.223.436-1.873.915-1.872.916-1.727 1.7-1.727 1.7-1.045 2.201-1.045 2.202-.383 2.093-.382 2.093v4.494l.55 2.418.55 2.418 1.218 2.061 1.217 2.062 1.672 1.554 1.672 1.554 2.592 1.235 2.591 1.235 3.406.16 3.405.16 2.117-.392 2.117-.392 1.708-.881 1.708-.882h1.393l.699.374.7.374.351.926.352.925-.42 1.015-.42 1.014-2.11 1.065-2.111 1.066-2.336.495-2.336.495-3.705-.017-3.704-.017-1.94-.51zm19.897-62.187-1.376-1.006L113 58.954l-6.527-5.337-.176-.001-.176-.001-7.762 6.167-7.76 6.168h-.892l-.892.001-.744-.52-.743-.522-.225-.896-.225-.896.449-.851.45-.851 8.774-6.963 8.774-6.963h1.958l1.721 1.382 1.722 1.382 7.273 5.913 7.274 5.913.22.88.222.882-.524 1.012-.524 1.013-.57.219-.572.219h-1.247l-1.376-1.007z" style="fill:#000;stroke-width:.352778" transform="translate(-38.54 -47.49)"/></svg>