<svg xmlns="http://www.w3.org/2000/svg" width="46.236" height="50"><path d="m4.121 49.883-.64-.094-.754-.371-.758-.375-.567-.605-.566-.61-.61-1.32L0 44.859l.035-12.808.031-12.809.309-.785.305-.781.882-1.32.72-.715.722-.711h.75l.508.508v.75l-.684.687-.68.691v.286l10.114 8.738 10.113 8.734 8.727-7.535 8.722-7.531.051-.086.055-.086-.305-.02-.305-.015-.511-.512-.059-4.562-.063-4.563-.363-.52-.367-.515-.516-.367-.52-.364H8.579l-.52.364-.519.367-.363.516-.364.52-.062 4.081-.059 4.078-.265.266-.266.262h-.746l-.266-.262-.265-.266-.07-6.75.117-.832.113-.832.305-.66.3-.664.57-.606.567-.609.746-.363.742-.367.774-.114.773-.109h26.61l.773.11.774.113.742.367.746.363.566.61.567.605.304.664.301.66.117.828.114.828-.07 7.72.202-.15.2-.144.843-.722.848-.723.016-.219-.723-.754-.723-.75v-.488l.563-.656.773.023.899.797.906 1.086.418.86.418.855.113.89.117.887v24.68l-.109.773-.113.774-.367.746-.364.742-.61.566-.605.57-1.32.602-1.5.219-18.242-.012-18.238-.011Zm38.262-1.922.18-.11-.06-.05-.054-.047L28.48 37.34l-.46-.445v-.75l.507-.508h.711l7.375 5.508 7.371 5.511.106-.164.101-.16.063-.36.066-.363-.03-13.07-.036-13.074-10.293 8.898-10.297 8.899-.27.105-.269.11-.238-.09-.242-.09-10.243-8.844-10.246-8.848-.11-.043-.112-.039v26.47l.562 1.062.11-.032.109-.035 14.164-11.25.246-.09.246-.093.633.304.152.32.153.317-.11.297-.113.293-6.723 5.332-6.718 5.332-.18.164-.176.164H23.25l18.957-.004ZM21.316 27.3l-.66-.176-1.804-.875-.907-.914-.902-.914-.39-.785-.391-.782-.258-1.02-.254-1.023.117-2.773.324-.965.32-.96.555-.821.559-.824.664-.54.668-.542 1.18-.602.91-.23.91-.235.914.004h.914l1.688.352 2.007.992.696.695.695.692.852 1.703.144.875.149.875-.118 2.422-.515 1.343-.844.985-.539.207-.543.207-.668-.07-.668-.067-.379-.242-.375-.238-.476.242-.473.242-.86.063-.855.062-.543-.144-.539-.149-.617-.617-.613-.621-.54-1.445-.007-1.891.406-.793.406-.797.516-.395.52-.39.503-.137.508-.14.723.058.726.059 1.235.625.379.457.375.453.117.441.12.442-.136.304-.14.305-.36.148-.363.149-.317-.176-.312-.176-.215-.453-.215-.457-.828-.344-.789.008-.277.153-.278.156-.234.351-.234.356v1.473l.175.425.18.426.332.266.336.265.719-.066.723-.063.21-.265.215-.262v-.574l.239-.242.242-.242h.824l.25.32.25.316v.672l.39.39.376-.034.375-.04.3-.539.297-.543.047-1.148.047-1.152-.195-.774-.2-.777-.425-.625-.426-.621-1.25-.86-.719-.253-.722-.254-.868-.067-.867-.062-.758.148-.761.149-.637.312-.64.313-.59.578-.59.582-.356.75-.355.754-.133.71-.13.715v1.536l.376 1.648.418.707.414.703.57.528.57.53.883.423.887.422 1.16.054 1.164.055.723-.133.723-.137.582-.296.582-.305h.476l.477.258.242.632-.145.344-.144.348-.719.363-.722.363-1.594.336-1.262-.004-1.266-.003ZM28.11 6.078l-.468-.344-2.23-1.82-2.227-1.824h-.122L17.767 6.3h-.61l-.254-.179-.25-.176-.078-.304-.078-.309.152-.289.157-.29 2.992-2.378L22.793 0h.668l.586.473.59.468 2.48 2.02 2.485 2.02.148.601-.176.344-.18.344-.195.078-.195.074h-.426Zm0 0"/></svg>