<svg xmlns="http://www.w3.org/2000/svg" width="642.667" height="464.933"><defs><clipPath id="a" clipPathUnits="userSpaceOnUse"><path d="M0 .028h595.275v841.861H0Z" clip-rule="evenodd"/></clipPath></defs><g clip-path="url(#a)" transform="matrix(1.33333 0 0 -1.33333 -75.533 1046.919)"><path d="M56.7 760.339h160.55v24.85H56.7ZM217.3 760.339h160.65v24.85H217.3ZM378 760.339h160.55v24.85H378Z" style="fill:#bdbdbd;fill-opacity:1;fill-rule:evenodd;stroke:none"/><path d="M56.7 710.539h160.55v24.85H56.7ZM217.3 710.539h160.65v24.85H217.3ZM378 710.539h160.55v24.85H378ZM56.7 660.739h160.55v24.85H56.7ZM217.3 660.739h160.65v24.85H217.3ZM378 660.739h160.55v24.85H378ZM56.7 610.939h160.55v24.85H56.7ZM217.3 610.939h160.65v24.85H217.3ZM378 610.939h160.55v24.85H378ZM56.7 561.139h160.55v24.85H56.7ZM217.3 561.139h160.65v24.85H217.3ZM378 561.139h160.55v24.85H378ZM56.7 511.339h160.55v24.85H56.7ZM217.3 511.339h160.65v24.85H217.3ZM378 511.339h160.55v24.85H378ZM56.7 461.539h160.55v24.85H56.7ZM217.3 461.539h160.65v24.85H217.3ZM378 461.539h160.55v24.85H378Z" style="fill:#eee;fill-opacity:1;fill-rule:evenodd;stroke:none"/><path d="M56.65 785.139h482M56.65 760.239h482M56.65 735.339h482M56.65 710.439h482M56.65 685.539h482M56.65 660.639h482M56.65 635.739h482M56.65 610.839h482M56.65 585.939h482M56.65 561.039h482M56.65 536.139h482M56.65 511.239h482M56.65 486.339h482M56.65 461.439h482M56.65 436.539h482M56.7 785.189v-348.7M217.3 785.189v-348.7M378 785.189v-348.7M538.6 785.189v-348.7" style="fill:none;stroke:#e0e0e0;stroke-width:.1;stroke-linecap:butt;stroke-linejoin:round;stroke-miterlimit:10;stroke-dasharray:none;stroke-opacity:1"/><text xml:space="preserve" style="font-variant:normal;font-weight:700;font-size:12px;font-family:&quot;Noto Sans&quot;;-inkscape-font-specification:NotoSans-Bold;writing-mode:lr-tb;fill:#000;fill-opacity:1;fill-rule:nonzero;stroke:none" transform="matrix(1 0 0 -1 119.15 768.039)"><tspan x="0 9.7559996 17.004 28.788" y="0">Name</tspan></text><text xml:space="preserve" style="font-variant:normal;font-weight:700;font-size:12px;font-family:&quot;Noto Sans&quot;;-inkscape-font-specification:NotoSans-Bold;writing-mode:lr-tb;fill:#000;fill-opacity:1;fill-rule:nonzero;stroke:none" transform="matrix(1 0 0 -1 282.85 768.039)"><tspan x="0 7.6440001 15.072 22.667999" y="0">Code</tspan></text><text xml:space="preserve" style="font-variant:normal;font-weight:700;font-size:12px;font-family:&quot;Noto Sans&quot;;-inkscape-font-specification:NotoSans-Bold;writing-mode:lr-tb;fill:#000;fill-opacity:1;fill-rule:nonzero;stroke:none" transform="matrix(1 0 0 -1 445.3 768.039)"><tspan x="0 4.6680002 10.836 18.264" y="0">Icon</tspan></text><text xml:space="preserve" style="font-variant:normal;font-weight:400;font-size:12px;font-family:&quot;Noto Sans&quot;;-inkscape-font-specification:NotoSans-Regular;writing-mode:lr-tb;fill:#000;fill-opacity:1;fill-rule:nonzero;stroke:none" transform="matrix(1 0 0 -1 61.05 743.139)"><tspan x="0 7.3800001 14.64 21.9" y="0">book</tspan></text><text xml:space="preserve" style="font-variant:normal;font-weight:400;font-size:12px;font-family:&quot;Noto Sans&quot;;-inkscape-font-specification:NotoSans-Regular;writing-mode:lr-tb;fill:#000;fill-opacity:1;fill-rule:nonzero;stroke:none" transform="matrix(1 0 0 -1 257.65 743.139)"><tspan x="0 7.4159999 14.28 20.507999 27.372 34.236" y="0">u+F02D</tspan></text><text xml:space="preserve" style="font-variant:normal;font-weight:400;font-size:12px;font-family:FontAwesome;-inkscape-font-specification:FontAwesome;writing-mode:lr-tb;fill:#000;fill-opacity:1;fill-rule:nonzero;stroke:none" transform="matrix(1 0 0 -1 452.8 743.539)"><tspan x="0" y="0"></tspan></text><text xml:space="preserve" style="font-variant:normal;font-weight:400;font-size:12px;font-family:&quot;Noto Sans&quot;;-inkscape-font-specification:NotoSans-Regular;writing-mode:lr-tb;fill:#000;fill-opacity:1;fill-rule:nonzero;stroke:none" transform="matrix(1 0 0 -1 61.05 718.239)"><tspan x="0 5.7600002 13.176 19.944 25.704" y="0">check</tspan></text><text xml:space="preserve" style="font-variant:normal;font-weight:400;font-size:12px;font-family:&quot;Noto Sans&quot;;-inkscape-font-specification:NotoSans-Regular;writing-mode:lr-tb;fill:#000;fill-opacity:1;fill-rule:nonzero;stroke:none" transform="matrix(1 0 0 -1 257.65 718.239)"><tspan x="0 7.4159999 14.28 20.507999 27.372 34.236" y="0">u+F00C</tspan></text><text xml:space="preserve" style="font-variant:normal;font-weight:400;font-size:12px;font-family:FontAwesome;-inkscape-font-specification:FontAwesome;writing-mode:lr-tb;fill:#000;fill-opacity:1;fill-rule:nonzero;stroke:none" transform="matrix(1 0 0 -1 452.4 718.639)"><tspan x="0" y="0"></tspan></text><text xml:space="preserve" style="font-variant:normal;font-weight:400;font-size:12px;font-family:&quot;Noto Sans&quot;;-inkscape-font-specification:NotoSans-Regular;writing-mode:lr-tb;fill:#000;fill-opacity:1;fill-rule:nonzero;stroke:none" transform="matrix(1 0 0 -1 61.05 693.339)"><tspan x="0 5.7600002 13.176 19.944 25.704 32.112 35.976002 41.736 44.832001 49.548 55.307999 58.403999" y="0">check-circle</tspan></text><text xml:space="preserve" style="font-variant:normal;font-weight:400;font-size:12px;font-family:&quot;Noto Sans&quot;;-inkscape-font-specification:NotoSans-Regular;writing-mode:lr-tb;fill:#000;fill-opacity:1;fill-rule:nonzero;stroke:none" transform="matrix(1 0 0 -1 257.65 693.339)"><tspan x="0 7.4159999 14.28 20.507999 27.372 34.236" y="0">u+F058</tspan></text><text xml:space="preserve" style="font-variant:normal;font-weight:400;font-size:12px;font-family:FontAwesome;-inkscape-font-specification:FontAwesome;writing-mode:lr-tb;fill:#000;fill-opacity:1;fill-rule:nonzero;stroke:none" transform="matrix(1 0 0 -1 453.25 693.739)"><tspan x="0" y="0"></tspan></text><text xml:space="preserve" style="font-variant:normal;font-weight:400;font-size:12px;font-family:&quot;Noto Sans&quot;;-inkscape-font-specification:NotoSans-Regular;writing-mode:lr-tb;fill:#000;fill-opacity:1;fill-rule:nonzero;stroke:none" transform="matrix(1 0 0 -1 61.05 668.439)"><tspan x="0 6.5279999 12.636 18.396 21.492001 28.224001 39.444 46.175999 50.507999 53.604 60.863998" y="0">exclamation</tspan></text><text xml:space="preserve" style="font-variant:normal;font-weight:400;font-size:12px;font-family:&quot;Noto Sans&quot;;-inkscape-font-specification:NotoSans-Regular;writing-mode:lr-tb;fill:#000;fill-opacity:1;fill-rule:nonzero;stroke:none" transform="matrix(1 0 0 -1 257.65 668.439)"><tspan x="0 7.4159999 14.28 20.507999 27.372 34.236" y="0">u+F12A</tspan></text><text xml:space="preserve" style="font-variant:normal;font-weight:400;font-size:12px;font-family:FontAwesome;-inkscape-font-specification:FontAwesome;writing-mode:lr-tb;fill:#000;fill-opacity:1;fill-rule:nonzero;stroke:none" transform="matrix(1 0 0 -1 456.25 668.839)"><tspan x="0" y="0"></tspan></text><text xml:space="preserve" style="font-variant:normal;font-weight:400;font-size:12px;font-family:&quot;Noto Sans&quot;;-inkscape-font-specification:NotoSans-Regular;writing-mode:lr-tb;fill:#000;fill-opacity:1;fill-rule:nonzero;stroke:none" transform="matrix(1 0 0 -1 61.05 643.539)"><tspan x="0 6.5279999 12.636 18.396 21.492001 28.224001 39.444 46.175999 50.507999 53.604 60.863998 68.279999 72.143997 77.903999 81 85.716003 91.475998 94.571999" y="0">exclamation-circle</tspan></text><text xml:space="preserve" style="font-variant:normal;font-weight:400;font-size:12px;font-family:&quot;Noto Sans&quot;;-inkscape-font-specification:NotoSans-Regular;writing-mode:lr-tb;fill:#000;fill-opacity:1;fill-rule:nonzero;stroke:none" transform="matrix(1 0 0 -1 257.65 643.539)"><tspan x="0 7.4159999 14.28 20.507999 27.372 34.236" y="0">u+F06A</tspan></text><text xml:space="preserve" style="font-variant:normal;font-weight:400;font-size:12px;font-family:FontAwesome;-inkscape-font-specification:FontAwesome;writing-mode:lr-tb;fill:#000;fill-opacity:1;fill-rule:nonzero;stroke:none" transform="matrix(1 0 0 -1 453.25 643.939)"><tspan x="0" y="0"></tspan></text><text xml:space="preserve" style="font-variant:normal;font-weight:400;font-size:12px;font-family:&quot;Noto Sans&quot;;-inkscape-font-specification:NotoSans-Regular;writing-mode:lr-tb;fill:#000;fill-opacity:1;fill-rule:nonzero;stroke:none" transform="matrix(1 0 0 -1 61.05 618.639)"><tspan x="0 6.5279999 12.648" y="0">eye</tspan></text><text xml:space="preserve" style="font-variant:normal;font-weight:400;font-size:12px;font-family:&quot;Noto Sans&quot;;-inkscape-font-specification:NotoSans-Regular;writing-mode:lr-tb;fill:#000;fill-opacity:1;fill-rule:nonzero;stroke:none" transform="matrix(1 0 0 -1 257.65 618.639)"><tspan x="0 7.4159999 14.28 20.507999 27.372 34.236" y="0">u+F06E</tspan></text><text xml:space="preserve" style="font-variant:normal;font-weight:400;font-size:12px;font-family:FontAwesome;-inkscape-font-specification:FontAwesome;writing-mode:lr-tb;fill:#000;fill-opacity:1;fill-rule:nonzero;stroke:none" transform="matrix(1 0 0 -1 452.4 619.039)"><tspan x="0" y="0"></tspan></text><text xml:space="preserve" style="font-variant:normal;font-weight:400;font-size:12px;font-family:&quot;Noto Sans&quot;;-inkscape-font-specification:NotoSans-Regular;writing-mode:lr-tb;fill:#000;fill-opacity:1;fill-rule:nonzero;stroke:none" transform="matrix(1 0 0 -1 61.05 593.739)"><tspan x="0 3.096 10.512 14.64" y="0">info</tspan></text><text xml:space="preserve" style="font-variant:normal;font-weight:400;font-size:12px;font-family:&quot;Noto Sans&quot;;-inkscape-font-specification:NotoSans-Regular;writing-mode:lr-tb;fill:#000;fill-opacity:1;fill-rule:nonzero;stroke:none" transform="matrix(1 0 0 -1 257.65 593.739)"><tspan x="0 7.4159999 14.28 20.507999 27.372 34.236" y="0">u+F129</tspan></text><text xml:space="preserve" style="font-variant:normal;font-weight:400;font-size:12px;font-family:FontAwesome;-inkscape-font-specification:FontAwesome;writing-mode:lr-tb;fill:#000;fill-opacity:1;fill-rule:nonzero;stroke:none" transform="matrix(1 0 0 -1 456.25 594.139)"><tspan x="0" y="0"></tspan></text><text xml:space="preserve" style="font-variant:normal;font-weight:400;font-size:12px;font-family:Arimo;-inkscape-font-specification:Arimo-Regular;writing-mode:lr-tb;fill:#000;fill-opacity:1;fill-rule:nonzero;stroke:none" transform="matrix(1 0 0 -1 61.05 569.239)"><tspan x="0 2.664 9.3360004 12.66 19.332001 23.327999 29.327999 31.992001 35.987999 41.987999 44.652" y="0">info-circle</tspan></text><text xml:space="preserve" style="font-variant:normal;font-weight:400;font-size:12px;font-family:&quot;Noto Sans&quot;;-inkscape-font-specification:NotoSans-Regular;writing-mode:lr-tb;fill:#000;fill-opacity:1;fill-rule:nonzero;stroke:none" transform="matrix(1 0 0 -1 257.65 568.839)"><tspan x="0 7.4159999 14.28 20.507999 27.372 34.236" y="0">u+F05A</tspan></text><text xml:space="preserve" style="font-variant:normal;font-weight:400;font-size:12px;font-family:FontAwesome;-inkscape-font-specification:FontAwesome;writing-mode:lr-tb;fill:#000;fill-opacity:1;fill-rule:nonzero;stroke:none" transform="matrix(1 0 0 -1 453.25 569.239)"><tspan x="0" y="0"></tspan></text><text xml:space="preserve" style="font-variant:normal;font-weight:400;font-size:12px;font-family:&quot;Noto Sans&quot;;-inkscape-font-specification:NotoSans-Regular;writing-mode:lr-tb;fill:#000;fill-opacity:1;fill-rule:nonzero;stroke:none" transform="matrix(1 0 0 -1 61.05 543.939)"><tspan x="0 7.3800001 14.148 21.563999 27.323999 30.42 33.515999 37.380001 44.112 47.208" y="0">pencil-alt</tspan></text><text xml:space="preserve" style="font-variant:normal;font-weight:400;font-size:12px;font-family:&quot;Noto Sans&quot;;-inkscape-font-specification:NotoSans-Regular;writing-mode:lr-tb;fill:#000;fill-opacity:1;fill-rule:nonzero;stroke:none" transform="matrix(1 0 0 -1 257.65 543.939)"><tspan x="0 7.4159999 14.28 20.507999 27.372 34.236" y="0">u+F040</tspan></text><text xml:space="preserve" style="font-variant:normal;font-weight:400;font-size:12px;font-family:FontAwesome;-inkscape-font-specification:FontAwesome;writing-mode:lr-tb;fill:#000;fill-opacity:1;fill-rule:nonzero;stroke:none" transform="matrix(1 0 0 -1 453.25 544.339)"><tspan x="0" y="0"></tspan></text><text xml:space="preserve" style="font-variant:normal;font-weight:400;font-size:12px;font-family:&quot;Noto Sans&quot;;-inkscape-font-specification:NotoSans-Regular;writing-mode:lr-tb;fill:#000;fill-opacity:1;fill-rule:nonzero;stroke:none" transform="matrix(1 0 0 -1 61.05 519.039)"><tspan x="0 7.3800001 14.796 21.563999 27.312 31.643999 34.740002 42" y="0">question</tspan></text><text xml:space="preserve" style="font-variant:normal;font-weight:400;font-size:12px;font-family:&quot;Noto Sans&quot;;-inkscape-font-specification:NotoSans-Regular;writing-mode:lr-tb;fill:#000;fill-opacity:1;fill-rule:nonzero;stroke:none" transform="matrix(1 0 0 -1 257.65 519.039)"><tspan x="0 7.4159999 14.28 20.507999 27.372 34.236" y="0">u+F128</tspan></text><text xml:space="preserve" style="font-variant:normal;font-weight:400;font-size:12px;font-family:FontAwesome;-inkscape-font-specification:FontAwesome;writing-mode:lr-tb;fill:#000;fill-opacity:1;fill-rule:nonzero;stroke:none" transform="matrix(1 0 0 -1 454.95 519.439)"><tspan x="0" y="0"></tspan></text><text xml:space="preserve" style="font-variant:normal;font-weight:400;font-size:12px;font-family:Arimo;-inkscape-font-specification:Arimo-Regular;writing-mode:lr-tb;fill:#000;fill-opacity:1;fill-rule:nonzero;stroke:none" transform="matrix(1 0 0 -1 61.05 494.539)"><tspan x="0 6.6719999 13.344 20.016001 26.016001 29.34 32.004002 38.675999 45.348 49.344002 55.344002 58.007999 62.004002 68.003998 70.667999" y="0">question-circle</tspan></text><text xml:space="preserve" style="font-variant:normal;font-weight:400;font-size:12px;font-family:&quot;Noto Sans&quot;;-inkscape-font-specification:NotoSans-Regular;writing-mode:lr-tb;fill:#000;fill-opacity:1;fill-rule:nonzero;stroke:none" transform="matrix(1 0 0 -1 257.65 494.139)"><tspan x="0 7.4159999 14.28 20.507999 27.372 34.236" y="0">u+F059</tspan></text><text xml:space="preserve" style="font-variant:normal;font-weight:400;font-size:12px;font-family:FontAwesome;-inkscape-font-specification:FontAwesome;writing-mode:lr-tb;fill:#000;fill-opacity:1;fill-rule:nonzero;stroke:none" transform="matrix(1 0 0 -1 453.25 494.539)"><tspan x="0" y="0"></tspan></text><text xml:space="preserve" style="font-variant:normal;font-weight:400;font-size:12px;font-family:&quot;Noto Sans&quot;;-inkscape-font-specification:NotoSans-Regular;writing-mode:lr-tb;fill:#000;fill-opacity:1;fill-rule:nonzero;stroke:none" transform="matrix(1 0 0 -1 61.05 469.239)"><tspan x="0 4.3319998 7.428 18.648001 25.416" y="0">times</tspan></text><text xml:space="preserve" style="font-variant:normal;font-weight:400;font-size:12px;font-family:&quot;Noto Sans&quot;;-inkscape-font-specification:NotoSans-Regular;writing-mode:lr-tb;fill:#000;fill-opacity:1;fill-rule:nonzero;stroke:none" transform="matrix(1 0 0 -1 257.65 469.239)"><tspan x="0 7.4159999 14.28 20.507999 27.372 34.236" y="0">u+F00D</tspan></text><text xml:space="preserve" style="font-variant:normal;font-weight:400;font-size:12px;font-family:FontAwesome;-inkscape-font-specification:FontAwesome;writing-mode:lr-tb;fill:#000;fill-opacity:1;fill-rule:nonzero;stroke:none" transform="matrix(1 0 0 -1 453.65 469.639)"><tspan x="0" y="0"></tspan></text><text xml:space="preserve" style="font-variant:normal;font-weight:400;font-size:12px;font-family:&quot;Noto Sans&quot;;-inkscape-font-specification:NotoSans-Regular;writing-mode:lr-tb;fill:#000;fill-opacity:1;fill-rule:nonzero;stroke:none" transform="matrix(1 0 0 -1 61.05 444.339)"><tspan x="0 4.3319998 7.428 18.648001 25.416 31.164 35.028 40.787998 43.883999 48.599998 54.360001 57.456001" y="0">times-circle</tspan></text><text xml:space="preserve" style="font-variant:normal;font-weight:400;font-size:12px;font-family:&quot;Noto Sans&quot;;-inkscape-font-specification:NotoSans-Regular;writing-mode:lr-tb;fill:#000;fill-opacity:1;fill-rule:nonzero;stroke:none" transform="matrix(1 0 0 -1 257.65 444.339)"><tspan x="0 7.4159999 14.28 20.507999 27.372 34.236" y="0">u+F057</tspan></text><text xml:space="preserve" style="font-variant:normal;font-weight:400;font-size:12px;font-family:FontAwesome;-inkscape-font-specification:FontAwesome;writing-mode:lr-tb;fill:#000;fill-opacity:1;fill-rule:nonzero;stroke:none" transform="matrix(1 0 0 -1 453.25 444.739)"><tspan x="0" y="0"></tspan></text></g></svg>