<?xml version="1.0" encoding="UTF-8"?>
<svg xmlns="http://www.w3.org/2000/svg" xmlns:xlink="http://www.w3.org/1999/xlink" width="15" height="15" viewBox="0 0 15 15">
<path fill-rule="nonzero" fill="rgb(60.784316%, 60.784316%, 60.392159%)" fill-opacity="1" d="M 12.378906 3.664062 L 11.835938 3.132812 L 11.304688 2.59375 C 11.304688 2.59375 8.90625 4.074219 7.320312 5.777344 C 5.152344 8.109375 4.28125 9.359375 4.28125 9.359375 L 5.636719 10.710938 C 6.878906 9.753906 8.070312 8.734375 9.207031 7.65625 C 10.914062 6.070312 12.378906 3.660156 12.378906 3.660156 Z M 12.378906 3.664062 "/>
<path fill-rule="nonzero" fill="rgb(24.705882%, 24.705882%, 24.705882%)" fill-opacity="1" d="M 6.402344 6.847656 C 5.625 7.621094 4.929688 8.476562 4.28125 9.359375 L 5.628906 10.6875 C 6.527344 10.050781 7.351562 9.34375 8.140625 8.574219 Z M 6.402344 6.847656 "/>
<path fill-rule="nonzero" fill="rgb(81.568629%, 81.176472%, 80.784315%)" fill-opacity="1" stroke-width="2" stroke-linecap="round" stroke-linejoin="round" stroke="rgb(81.568629%, 81.176472%, 80.784315%)" stroke-opacity="1" stroke-miterlimit="4" d="M 27.01875 51.28125 L 21.375 57.65625 L 13.59375 58.425 L 14.2125 50.60625 L 20.55 44.925 " transform="matrix(0.208333, 0, 0, 0.208333, 0, 0)"/>
<path fill="none" stroke-width="2" stroke-linecap="round" stroke-linejoin="round" stroke="rgb(0%, 0%, 0%)" stroke-opacity="1" stroke-miterlimit="4" d="M 17.775 54.1125 L 14.79375 57.225 M 24.28125 54.4875 L 21.375 57.65625 L 13.59375 58.425 L 14.2125 50.625 L 17.4375 47.625 M 59.1375 17.23125 L 56.53125 14.7 L 53.9625 12.13125 C 53.9625 12.13125 42.4875 19.3125 34.95 27.5625 C 24.61875 38.83125 20.475 44.86875 20.475 44.86875 L 27.01875 51.3 C 32.94375 46.66875 38.64375 41.7375 44.0625 36.50625 C 52.2 28.8375 59.15625 17.23125 59.15625 17.23125 Z M 38.9625 40.96875 L 30.58125 32.71875 " transform="matrix(0.208333, 0, 0, 0.208333, 0, 0)"/>
</svg>
