<svg xmlns="http://www.w3.org/2000/svg" xml:space="preserve" width="595.999" height="574.145" viewBox="0 0 157.691 151.909"><path d="m22.051 207.334-.705-.39-1.002-.923-1.002-.922-.497-.953-.498-.953.006-1.87.006-1.869.794-1.411.793-1.411 1.759-.882 1.758-.882h.1l1.64-13.053 1.64-13.053.524-1.446.523-1.446.785-.71.785-.711 7.232-3.796 7.232-3.796 1.674-.926 1.673-.927 11.82 11.816 11.82 11.816v.44l-4.629 8.778-4.628 8.778-.716.785-.716.785-1.446.521-1.447.522-13.052 1.647-13.053 1.648v.089l-.882 1.758-.882 1.759-1.411.793-1.411.794-1.94-.005-1.94-.005-.706-.39zm24.581-21.542 2.003-.15 1.298-.99 1.297-.99.53-1.266.528-1.266-.155-1.877-.156-1.877-.697-.934-.697-.933-.975-.728-.974-.727H43.8l-.974.727-.975.728-.697.933-.697.934-.153 2.043-.154 2.043-6.683 6.722-6.683 6.722 1.336.865 1.337.865.865 1.336.865 1.337 6.721-6.683 6.722-6.684zm28.356 21.168-.55-.784.006-2.479.005-2.479.436-.859.435-.859 2.602-.438 2.601-.437 1.809-.587 1.808-.586 1.89-1.075 1.89-1.075 2.213-2.07 2.213-2.07 1.421-1.851 1.421-1.851 2.883-4.586 2.882-4.587 1.295-1.352 1.295-1.352 1-.525 1.002-.525h3.72l1.196.502 1.195.502 1.131 1.162 1.13 1.16.546 1.6.545 1.6-.008 2.318-.008 2.319-.69 4.586-.689 4.586-.008 2.005-.008 2.004.688.219.689.218 1.374-.37 1.374-.37 1.377-.998 1.377-.998 4.23-4.506 4.231-4.506 1.48-.867 1.479-.867 1.778-.014 1.78-.014 1.195.74 1.196.739.908 1.371.907 1.372 1.614 3.832 1.614 3.832.338.53.337.528.628-.388.627-.388 2.47-2.807 2.469-2.807 2.048-2.358 2.049-2.358 1.56-.914 1.56-.915h3.2l1.141.667 1.141.666.784 1.392.784 1.391.704 2.293.705 2.293.905 1.322.905 1.322 1.477.753 1.477.753 2.48.418 2.48.417.436.86.435.858.005 2.48.005 2.478-.549.784-.549.784-1.656-.005-1.655-.005-2.231-.526-2.231-.526-1.914-.905-1.913-.905-1.858-1.698-1.857-1.697-1.23-2.148-1.23-2.147-.177.012-.176.011-2.646 3.207-2.646 3.207-1.764 1.41-1.763 1.408-1.412.646-1.41.646-1.867.008-1.866.008-1.342-.684-1.342-.685-1.09-1.242-1.09-1.241-.88-1.513-.878-1.514-.975-2.392-.976-2.392-3.725 3.858-3.725 3.857-2.267 1.45-2.267 1.45-1.766.524-1.766.524-2.493-.008-2.494-.008-1.587-.717-1.588-.718-1.177-1.127-1.178-1.126-.667-1.294-.667-1.294-.382-2.466-.383-2.466.551-4.238.552-4.237v-1.224l-2.432 3.67-2.431 3.67-1.73 1.967-1.73 1.967-1.95 1.766-1.95 1.766-1.561 1.071-1.562 1.071-2.266 1.141-2.265 1.141-3.336.847-3.336.846h-3.75l-.55-.785zm-10.75-45.223-11.784-11.789 11.733-16.434L75.92 117.08h.456l16.318 16.315 16.317 16.315v.461l-16.355 11.677-16.355 11.677h-.279zm66.419-4.809-1.109-.232-1.198-.74-1.198-.74-.814-1.449-.814-1.448.014-1.73.013-1.729.412-.809.413-.808 18.102-18.168 18.103-18.168.241-1.32.242-1.321-.236-.94-.236-.94-2.345-2.429-2.344-2.429-21.713 21.711-21.713 21.711-16.673-16.676L81.13 111.6l25.67-25.572 25.67-25.572 1.998-1.17 1.999-1.168 2.564-.892 2.564-.892 2.602-.248 2.603-.249 2.631.282 2.632.282 2.198.734 2.198.733 2.511 1.557 2.511 1.557 2.31 2.45 2.31 2.448 1.438 2.935 1.436 2.935.533 2.102.533 2.103v6.759l-.54 2.102-.541 2.103-1.186 2.516-1.187 2.516 2.454 2.423 2.453 2.423 1.387 2.064 1.386 2.063.726 2.346.726 2.346-.004 2.822-.004 2.823-.582 1.94-.58 1.94-.88 1.764-.88 1.764-18.572 18.633-18.572 18.633-.706.39-.705.391-1.235.223-1.235.222-1.108-.232z" style="fill:#000;stroke-width:.352778" transform="translate(-18.347 -55.836)"/></svg>