<svg xmlns="http://www.w3.org/2000/svg" width="51.903" height="50"><path d="m1.219 49.863-.23-.125-.333-.304-.328-.305-.164-.313L0 48.5l.004-.613v-.617l.262-.461.261-.465.578-.293.579-.29h.035l1.078-8.593.172-.477.172-.472.515-.469L6.04 34.5l2.379-1.25 1.102-.61 3.89 3.891 3.89 3.887v.145l-3.046 5.78-.234.259-.239.257-.472.172-.477.172-4.297.543-4.297.54v.03l-.289.579-.293.578-.46.261-.466.262h-.64l-.637-.004Zm8.09-7.09.66-.046.426-.329.43-.324.171-.418.176-.418-.102-1.234-.23-.309-.23-.304-.32-.243-.321-.238h-1.59l-.32.238-.325.243-.226.304-.23.309-.102 1.344-2.2 2.215-2.199 2.21.438.286.441.285.285.441.286.438 2.21-2.2 2.215-2.199Zm9.336 6.97-.184-.259.004-.816v-.816l.144-.282.145-.285.855-.144.856-.141.594-.195.597-.192.621-.355.621-.352.73-.683.727-.68.938-1.219.95-1.511.945-1.508.43-.446.425-.445.656-.344h1.227l.394.164.39.164.376.383.371.383.18.527.18.524-.005.765-.003.762-.227 1.512-.227 1.508v.66l-.003.66.226.07.227.075.453-.125.449-.122.906-.656 1.395-1.484 1.39-1.48.977-.57.586-.009.586-.004.39.246.395.243.3.449.298.453 1.062 2.523.11.172.113.176.207-.129.207-.125 1.625-1.851.672-.774.676-.777.511-.301.516-.3h1.05l.38.218.375.219.257.46.258.458.23.754.235.754.297.437.297.434.488.246.484.25 1.633.273.145.285.14.282.004.816v.816l-.359.516-.547-.004h-.543l-.734-.172-.735-.176-.632-.296-.63-.297-.609-.559-.613-.559-.402-.707-.407-.707-.117.008-1.742 2.11-.578.464-.582.465-.465.211-.465.215h-.613l-.613.004-.442-.227-.441-.222-.719-.82-.289-.497-.29-.5-.32-.785-.324-.789-1.222 1.27-1.227 1.27-.746.48-.746.476-1.164.344-.82-.004h-.82l-.524-.238-.524-.235-.773-.742-.219-.426-.222-.425-.25-1.625.18-1.395.183-1.394v-.403l-1.602 2.414-.57.649-.566.648-.645.582-.64.582-.516.352-.512.351-1.492.75-1.098.282L20.06 50h-1.235Zm-3.54-14.888-3.878-3.878 3.863-5.41 3.86-5.41h.152l5.37 5.37 5.368 5.371v.153l-10.766 7.687h-.09Zm21.86-1.582-.363-.074-.395-.246-.395-.242-.269-.477-.266-.476.008-1.14.274-.532 11.914-11.961.082-.434.078-.433-.078-.309-.078-.312-.77-.797-.773-.8L31.64 29.331 20.664 18.355 37.562 1.52l.657-.383.66-.387 1.687-.586.856-.082.86-.082.863.094.867.093.722.239.723.242.828.512.828.515.758.805.762.805.472.968.473.965.352 1.383v2.227l-.18.691-.176.691-.781 1.657.809.797.804.796.914 1.36.477 1.547v1.855l-.192.64-.19.638-.29.582-.293.578-6.11 6.133-6.113 6.132-.234.13-.23.128-.813.149Zm0 0"/></svg>