<?xml version="1.0" encoding="UTF-8"?>
<svg xmlns="http://www.w3.org/2000/svg" xmlns:xlink="http://www.w3.org/1999/xlink" width="15" height="12.120935" viewBox="0 0 15 12.120935">
<path fill="none" stroke-width="10" stroke-linecap="butt" stroke-linejoin="round" stroke="rgb(100%, 100%, 100%)" stroke-opacity="1" stroke-miterlimit="4" d="M 17820.836473 8595.836082 L 16275.002646 10141.669909 L 15329.16901 9200.002942 L 18425.003333 6104.168618 L 19366.670301 7050.002254 Z M 17820.836473 8595.836082 " transform="matrix(0.0009375, 0, 0, 0.0009375, 0.00000239802, 0.000000000000000705)"/>
<path fill-rule="nonzero" fill="rgb(91.764706%, 33.725491%, 23.921569%)" fill-opacity="1" d="M 1.726562 2.398438 C 1.664062 2.476562 1.574219 2.535156 1.457031 2.574219 C 1.34375 2.617188 1.21875 2.636719 1.078125 2.636719 C 0.929688 2.636719 0.800781 2.605469 0.691406 2.542969 C 0.582031 2.476562 0.496094 2.382812 0.4375 2.261719 C 0.375 2.140625 0.34375 2 0.34375 1.832031 L 0.34375 1.71875 C 0.34375 1.550781 0.371094 1.402344 0.429688 1.28125 C 0.484375 1.15625 0.566406 1.0625 0.675781 0.996094 C 0.78125 0.929688 0.910156 0.898438 1.054688 0.898438 C 1.253906 0.898438 1.410156 0.945312 1.523438 1.042969 C 1.636719 1.136719 1.703125 1.277344 1.726562 1.460938 L 1.386719 1.460938 C 1.371094 1.363281 1.335938 1.292969 1.28125 1.246094 C 1.230469 1.203125 1.15625 1.179688 1.0625 1.179688 C 0.945312 1.179688 0.855469 1.222656 0.792969 1.3125 C 0.730469 1.402344 0.699219 1.535156 0.699219 1.710938 L 0.699219 1.820312 C 0.699219 1.996094 0.730469 2.128906 0.800781 2.222656 C 0.867188 2.3125 0.964844 2.355469 1.097656 2.355469 C 1.226562 2.355469 1.320312 2.328125 1.375 2.273438 L 1.375 1.980469 L 1.058594 1.980469 L 1.058594 1.726562 L 1.726562 1.726562 Z M 2.632812 1.996094 L 2.355469 1.996094 L 2.355469 2.613281 L 2.007812 2.613281 L 2.007812 0.921875 L 2.636719 0.921875 C 2.835938 0.921875 2.992188 0.964844 3.097656 1.054688 C 3.207031 1.144531 3.261719 1.269531 3.261719 1.433594 C 3.261719 1.546875 3.238281 1.644531 3.1875 1.722656 C 3.136719 1.800781 3.0625 1.859375 2.960938 1.90625 L 3.324219 2.597656 L 3.324219 2.613281 L 2.953125 2.613281 Z M 2.355469 1.710938 L 2.636719 1.710938 C 2.726562 1.710938 2.792969 1.691406 2.839844 1.644531 C 2.890625 1.601562 2.914062 1.539062 2.914062 1.460938 C 2.914062 1.382812 2.890625 1.316406 2.84375 1.273438 C 2.800781 1.226562 2.730469 1.203125 2.636719 1.203125 L 2.355469 1.203125 Z M 4.484375 2.265625 L 3.871094 2.265625 L 3.753906 2.613281 L 3.382812 2.613281 L 4.015625 0.921875 L 4.335938 0.921875 L 4.972656 2.613281 L 4.601562 2.613281 Z M 3.964844 1.984375 L 4.390625 1.984375 L 4.175781 1.347656 Z M 5.585938 0.921875 L 6.019531 2.148438 L 6.453125 0.921875 L 6.910156 0.921875 L 6.910156 2.613281 L 6.5625 2.613281 L 6.5625 2.152344 L 6.59375 1.351562 L 6.136719 2.613281 L 5.898438 2.613281 L 5.445312 1.355469 L 5.476562 2.152344 L 5.476562 2.613281 L 5.128906 2.613281 L 5.128906 0.921875 Z M 7.671875 0.921875 L 8.105469 2.148438 L 8.539062 0.921875 L 8.996094 0.921875 L 8.996094 2.613281 L 8.648438 2.613281 L 8.648438 2.152344 L 8.679688 1.351562 L 8.222656 2.613281 L 7.984375 2.613281 L 7.527344 1.355469 L 7.5625 2.152344 L 7.5625 2.613281 L 7.214844 2.613281 L 7.214844 0.921875 Z M 10.257812 2.265625 L 9.644531 2.265625 L 9.527344 2.613281 L 9.160156 2.613281 L 9.789062 0.921875 L 10.113281 0.921875 L 10.746094 2.613281 L 10.375 2.613281 Z M 9.738281 1.984375 L 10.164062 1.984375 L 9.949219 1.347656 Z M 12.039062 1.203125 L 11.519531 1.203125 L 11.519531 2.613281 L 11.171875 2.613281 L 11.171875 1.203125 L 10.660156 1.203125 L 10.660156 0.921875 L 12.039062 0.921875 Z M 12.609375 2.613281 L 12.257812 2.613281 L 12.257812 0.921875 L 12.609375 0.921875 Z M 13.460938 1.933594 L 13.28125 2.128906 L 13.28125 2.613281 L 12.929688 2.613281 L 12.929688 0.921875 L 13.28125 0.921875 L 13.28125 1.6875 L 13.433594 1.476562 L 13.863281 0.921875 L 14.292969 0.921875 L 13.691406 1.671875 L 14.3125 2.613281 L 13.894531 2.613281 Z M 0.234375 0.117188 "/>
<path fill-rule="nonzero" fill="rgb(97.647059%, 78.039217%, 32.156864%)" fill-opacity="1" d="M 2.136719 3.4375 L 1.445312 3.4375 L 1.445312 5.316406 L 0.980469 5.316406 L 0.980469 3.4375 L 0.296875 3.4375 L 0.296875 3.058594 L 2.136719 3.058594 Z M 4.238281 5.316406 L 3.773438 5.316406 L 3.773438 4.351562 L 2.867188 4.351562 L 2.867188 5.316406 L 2.398438 5.316406 L 2.398438 3.058594 L 2.867188 3.058594 L 2.867188 3.976562 L 3.773438 3.976562 L 3.773438 3.058594 L 4.238281 3.058594 Z M 6.003906 4.339844 L 5.109375 4.339844 L 5.109375 4.945312 L 6.15625 4.945312 L 6.15625 5.316406 L 4.644531 5.316406 L 4.644531 3.058594 L 6.152344 3.058594 L 6.152344 3.4375 L 5.109375 3.4375 L 5.109375 3.976562 L 6.003906 3.976562 Z M 8.285156 4.242188 C 8.285156 4.460938 8.246094 4.65625 8.167969 4.824219 C 8.089844 4.992188 7.976562 5.121094 7.828125 5.210938 C 7.683594 5.304688 7.515625 5.347656 7.324219 5.347656 C 7.140625 5.347656 6.972656 5.304688 6.824219 5.214844 C 6.679688 5.125 6.566406 4.996094 6.484375 4.828125 C 6.402344 4.660156 6.363281 4.46875 6.363281 4.253906 L 6.363281 4.140625 C 6.363281 3.917969 6.402344 3.722656 6.480469 3.554688 C 6.5625 3.386719 6.675781 3.253906 6.820312 3.164062 C 6.96875 3.074219 7.136719 3.03125 7.324219 3.03125 C 7.511719 3.03125 7.679688 3.074219 7.824219 3.164062 C 7.972656 3.253906 8.085938 3.386719 8.164062 3.554688 C 8.246094 3.722656 8.285156 3.917969 8.285156 4.140625 Z M 7.8125 4.136719 C 7.8125 3.902344 7.769531 3.722656 7.6875 3.597656 C 7.601562 3.476562 7.480469 3.414062 7.324219 3.414062 C 7.167969 3.414062 7.046875 3.476562 6.960938 3.597656 C 6.878906 3.71875 6.835938 3.894531 6.832031 4.128906 L 6.832031 4.242188 C 6.832031 4.472656 6.875 4.648438 6.960938 4.777344 C 7.046875 4.902344 7.167969 4.96875 7.324219 4.96875 C 7.480469 4.96875 7.601562 4.90625 7.6875 4.785156 C 7.769531 4.660156 7.8125 4.484375 7.8125 4.25 Z M 9.457031 4.492188 L 9.085938 4.492188 L 9.085938 5.316406 L 8.621094 5.316406 L 8.621094 3.058594 L 9.460938 3.058594 C 9.726562 3.058594 9.933594 3.121094 10.078125 3.238281 C 10.222656 3.359375 10.296875 3.527344 10.296875 3.742188 C 10.296875 3.898438 10.261719 4.023438 10.195312 4.128906 C 10.128906 4.230469 10.027344 4.3125 9.890625 4.375 L 10.378906 5.296875 L 10.378906 5.316406 L 9.882812 5.316406 Z M 9.085938 4.113281 L 9.460938 4.113281 C 9.578125 4.113281 9.667969 4.085938 9.734375 4.027344 C 9.796875 3.964844 9.832031 3.882812 9.832031 3.78125 C 9.832031 3.671875 9.800781 3.589844 9.738281 3.527344 C 9.679688 3.46875 9.585938 3.4375 9.460938 3.4375 L 9.085938 3.4375 Z M 11.144531 5.316406 L 10.679688 5.316406 L 10.679688 3.058594 L 11.144531 3.058594 Z M 12.933594 4.339844 L 12.039062 4.339844 L 12.039062 4.945312 L 13.085938 4.945312 L 13.085938 5.316406 L 11.574219 5.316406 L 11.574219 3.058594 L 13.085938 3.058594 L 13.085938 3.4375 L 12.039062 3.4375 L 12.039062 3.976562 L 12.933594 3.976562 Z M 0.234375 1.992188 "/>
<path fill-rule="evenodd" fill="rgb(87.843138%, 87.843138%, 87.843138%)" fill-opacity="1" d="M 9.597656 8.339844 L 9.597656 12.121094 L 4.65625 12.121094 L 4.65625 7.175781 L 8.097656 7.175781 L 7.347656 7.925781 L 5.40625 7.925781 L 5.40625 11.371094 L 8.847656 11.371094 L 8.847656 9.089844 Z M 9.597656 8.339844 "/>
<path fill-rule="evenodd" fill="rgb(27.058825%, 72.156864%, 42.745098%)" fill-opacity="1" d="M 7.203125 9.796875 L 6.972656 10.027344 L 5.773438 8.832031 L 6.238281 8.367188 L 7.433594 9.5625 Z M 7.203125 9.796875 "/>
<path fill-rule="evenodd" fill="rgb(27.058825%, 72.156864%, 42.745098%)" fill-opacity="1" d="M 9.007812 7.992188 L 7.351562 9.648438 L 6.886719 9.183594 L 10.203125 5.871094 L 10.667969 6.332031 Z M 9.007812 7.992188 "/>
</svg>
