<svg xmlns="http://www.w3.org/2000/svg" xml:space="preserve" width="597.332" height="592.053" viewBox="0 0 158.044 156.647"><path d="m39.006 206.815-1.48-.292-2.05-.828-2.051-.828-2.032-1.349-2.032-1.349-1.565-1.789-1.565-1.79-1.258-2.493-1.257-2.494-.516-2.47-.517-2.469-.006-60.004-.006-60.004.697-2.724.697-2.725 1.155-2.177 1.155-2.177 2.117-2.151 2.117-2.152 1.722-1.001 1.721-1.001 2.335-.91 2.336-.91 51.821-.095 51.822-.095.787.516.787.516.24.956.24.957-.397.958-.397.958-.874.399-.875.398H40.791l-1.916.56-1.916.561-1.677 1.065-1.676 1.064-1.543 1.716-1.543 1.716-.744 1.583-.745 1.584-.349 1.514-.349 1.514-.004 1.764-.004 1.764.471 1.763.471 1.764.798 1.561.798 1.561 1.814 1.811 1.813 1.811 1.94.945 1.94.945 1.901.357 1.9.358H142.65l.866.866.865.866v83.96l-.398.874-.399.875-.958.397-.958.397-.945-.237-.944-.237-.521-.744-.521-.743V91.14l-49.653-.1-49.654-.1-1.94-.655-1.94-.654-1.94-.982-1.941-.981-1.681-1.483-1.682-1.483.094 52.863.094 52.863 1.107 2.337 1.107 2.337 1.342 1.485 1.342 1.486 1.461 1.005 1.46 1.005 2.165.729 2.165.729H94.253l.86.392.86.391.39.86.392.86V205.452l-.865.866-.866.866-27.268-.038-27.269-.04zm64.259-.496-.866-.866V183.47l.73-1.283.729-1.283.946-.705.946-.706 7.314-.108 7.313-.108 1.263.6 1.263.599.86 1.266.86 1.266v22.446l-.865.866-.866.866H121.135l-.99-.85-.99-.852-.122-4.793-.123-4.794h-10.867v8.866l-.41.77-.41.771-.56.43-.56.43-.986.011-.986.011-.866-.866zm15.714-18.713v-2.646h-10.936v5.292h10.936zm12.357 18.883-.697-.697-.2-.803-.2-.802.102-11.762.104-11.761.832-.674.833-.674H148.861l1.199.796 1.199.797.819 1.585.82 1.584-.23 4.057-.23 4.057.103 1.588.105 1.587.012 3.88.012 3.881-.725 1.235-.726 1.234-1.391.789-1.392.788-8.202.006-8.202.006zm15.792-7.682-.103-2.734-5.556-.097-5.556-.098v5.662H147.232zm.074-11.2v-2.647h-11.289v5.292h11.289zm14.057 18.866-1.288-.68-.829-1.332-.828-1.333V183.373l.725-1.234.724-1.233 1.18-.795 1.18-.795h16.86l.867.866.866.866v1.756l-.851.99-.851.99-7.616.108-7.616.107v16.541H178.653l1.031 1.032 1.032 1.031v1.148l-.517.998-.516.998-.57.22-.572.218-7.997-.015-7.997-.016-1.288-.68zm-99.301-66.728-.754-.365-.393-.863-.393-.862v-1.41l.866-.866.866-.866h42.75l.866.866.866.866v1.85l-1.031 1.031-1.031 1.031-20.93-.023-20.929-.024-.753-.365zm-12.45-23.8-.731-.93v-1.573l.73-.93.732-.93H116.812l.73.93.732.93v1.573l-.731.93-.731.93H50.239Zm-5.609-43.279-.767-.816v-2.248l.697-.697.696-.696.803-.195.803-.196 44.04.098 44.04.098.675.833.674.833v2.364l-.772.72-.772.719h-89.35Z" style="fill:#000;stroke-width:.352778" transform="translate(-22.671 -50.538)"/></svg>