<svg xmlns="http://www.w3.org/2000/svg" width="50.446" height="50"><path d="m5.215 49.883-.473-.094-.656-.266-.652-.261-.649-.434-.648-.43-1-1.14-.805-1.594-.164-.789-.164-.785L0 24.937V5.782l.223-.867.222-.871.367-.695.372-.696.675-.683.676-.688.547-.32.55-.32L5.126.062l16.54-.03L38.206 0l.5.328.078.305.074.308-.25.61-.28.129-.278.125H5.785l-.613.18-.61.18-.539.339-.53.34-.497.547-.492.546-.234.508-.239.504-.113.485-.11.484-.003.562v.563l.148.562.152.563.254.5.254.496.582.578.578.578.618.301.62.305 1.212.226h32.074l.55.551v26.8l-.124.278-.13.282-.304.124-.305.13-.304-.079-.301-.074-.164-.238-.168-.235v-25.73l-15.848-.031-15.851-.035-.618-.207-.62-.211-.618-.313-.62-.312-.536-.473-.54-.473.032 16.871.031 16.875.352.746.355.747.426.472.43.473.465.324.468.32.692.23.691.235h17.11l.273.125.277.125.25.547v.45l-.554.554-17.407-.023Zm20.512-.16-.278-.278V42.43l.23-.41.235-.407.3-.226.306-.227 2.332-.035 2.335-.031.805.383.274.402.277.402v7.168l-.277.274-.278.277h-.558l-.317-.27-.316-.273-.04-1.531-.038-1.528H27.25v2.829l-.133.246-.129.246-.36.273-.312.004L26 50Zm5.015-5.973v-.844H27.25v1.688h3.492Zm3.942 6.027-.223-.222-.063-.254-.062-.258.062-7.508.266-.215.27-.215h5.343l.766.508.262.504.261.508-.074 1.293-.07 1.297.031.508.035.504.008 2.476-.234.395-.23.394-.446.254-.441.25-2.622.004h-2.617Zm5.043-2.453-.036-.87-3.546-.063v1.808h3.613Zm.023-3.574v-.844h-3.605v1.688h3.605Zm4.484 6.023-.41-.218-.265-.426-.262-.426v-6.305l.23-.394.23-.39.38-.255.375-.254h5.383l.273.278.277.273v.563l-.27.316-.273.317-2.43.03-2.433.036v5.281h4.75l.656.656v.368l-.164.32-.164.316-.367.141-2.55-.004-2.552-.008Zm-31.695-21.3-.238-.118-.125-.273-.13-.273v-.454l.278-.273.278-.277h13.644l.277.277.278.273v.59l-.66.66-13.36-.015Zm-3.973-7.594-.234-.297v-.504l.469-.594h21.246l.469.594v.504l-.47.594H8.802ZM6.777 7.062l-.246-.261v-.715l.446-.445.253-.063.258-.062 14.059.03 14.055.032.43.531v.754l-.493.461H7.02Zm0 0"/></svg>