<svg xmlns="http://www.w3.org/2000/svg" id="Layer" viewBox="0 0 280 280"><defs><style>.cls-1{fill:#424242}</style></defs><path d="M266.4 29 251 13.6a5.44 5.44 0 0 0-7.7 0L228.82 28l-23.13 23.18L23.44 233.44l-.14.13-1.3 3.82-1.42 4.34 17.65 17.65 4.38-1.38 3.82-1.26.13-.14L228.82 74.31 252 51.18l14.4-14.46a5.44 5.44 0 0 0 0-7.72ZM41 250.8 29.2 239 211.35 56.84l11.81 11.81ZM231.71 65.88l-17.59-17.59 11.81-11.82 17.6 17.6Zm14.58-20.36-11.81-11.81 12.65-12.65 11.81 11.81Z" class="cls-1"/><path d="m211.35 56.837 5.657-5.657 11.809 11.809-5.657 5.656zm17.474-17.459 5.652-5.661 11.819 11.798-5.652 5.662z" style="fill:#4cb050"/><path d="m23.44 233.44-.14.13-1.3 3.82-1.42 4.34L12 268l26.27-8.62 4.34-1.38 3.82-1.26.13-.14Zm1.09 22 2.38-7.25 4.87 4.87ZM252 51.24 228.76 28a4 4 0 0 0-5.66 0l-17.47 17.46a4 4 0 0 0 0 5.66l23.25 23.25a4 4 0 0 0 5.66 0l4.88-4.88 5-5L252 56.9a4 4 0 0 0 0-5.66Zm-37.89-3 11.81-11.82 17.6 17.6-11.81 11.86Z" class="cls-1"/><rect width="9.46" height="89.95" x="225.51" y="48.1" class="cls-1" rx="4" ry="4" transform="rotate(45 230.236 93.077)"/><path d="m244.46 64.454 3.853 3.854-5.034 5.034-3.854-3.853z" class="cls-1"/></svg>