<?xml version="1.0" ?><svg id="Layer" viewBox="0 0 280 280" xmlns="http://www.w3.org/2000/svg"><defs><style>.cls-1{fill:#424242;}.cls-2{fill:#4cb050;}</style></defs><title/><path class="cls-1" d="M266.4,29,251,13.6a5.44,5.44,0,0,0-7.7,0L228.82,28,205.69,51.18,23.44,233.44l-.14.13L22,237.39l-1.42,4.34,17.65,17.65L42.61,258l3.82-1.26.13-.14L228.82,74.31,252,51.18,266.4,36.72A5.44,5.44,0,0,0,266.4,29ZM41,250.8,29.2,239,211.35,56.84l11.81,11.81ZM231.71,65.88,214.12,48.29l11.81-11.82,17.6,17.6Zm14.58-20.36L234.48,33.71l12.65-12.65,11.81,11.81Z"/><rect class="cls-2" height="16.7" transform="translate(22.1 173.17) rotate(-45)" width="8" x="216.08" y="51.56"/><rect class="cls-2" height="16.7" transform="translate(39.69 180.59) rotate(-45.05)" width="8" x="233.56" y="34.09"/><path class="cls-1" d="M23.44,233.44l-.14.13L22,237.39l-1.42,4.34L12,268l26.27-8.62L42.61,258l3.82-1.26.13-.14Zm1.09,22,2.38-7.25,4.87,4.87Z"/><path class="cls-1" d="M252,51.24,228.76,28a4,4,0,0,0-5.66,0L205.63,45.46a4,4,0,0,0,0,5.66l23.25,23.25a4,4,0,0,0,5.66,0l4.88-4.88,5-5L252,56.9A4,4,0,0,0,252,51.24Zm-37.89-3,11.81-11.82,17.6,17.6L231.71,65.88Z"/><rect class="cls-1" height="89.95" rx="4" ry="4" transform="translate(133.25 -135.54) rotate(45)" width="9.46" x="225.51" y="48.1"/><rect class="cls-1" height="7.12" transform="translate(120.15 -152.26) rotate(45)" width="5.45" x="241.14" y="65.34"/></svg>