<svg xmlns="http://www.w3.org/2000/svg" width="50.002" height="50"><path fill="#424242" d="M49.688 3.32 46.68.313a1.062 1.062 0 0 0-1.504 0l-2.828 2.812-4.516 4.527L2.234 43.25l-.027.023-.254.747-.277.847 3.449 3.45.855-.27.747-.246.023-.028 35.598-35.605 4.527-4.516 2.813-2.824a1.058 1.058 0 0 0 0-1.508ZM5.663 46.64 3.36 44.337 38.937 8.758l2.305 2.305Zm37.25-36.117-3.437-3.437 2.308-2.309 3.438 3.438Zm2.848-3.976-2.309-2.309 2.473-2.468 2.304 2.304Zm0 0"/><path fill="#4CB050" d="m38.938 8.758 1.101-1.106 2.309 2.305-1.106 1.105Zm3.41-3.41 1.105-1.106 2.309 2.305-1.106 1.105Zm0 0"/><path fill="#424242" d="m2.234 43.25-.027.023-.254.747-.277.847L0 50l5.133-1.684.847-.27.747-.245.023-.028Zm.215 4.297.465-1.418.95.953ZM46.875 7.664l-4.54-4.539a.768.768 0 0 0-.55-.23.784.784 0 0 0-.555.23l-3.41 3.41a.768.768 0 0 0-.23.55c0 .208.082.407.23.556l4.54 4.539c.148.148.347.23.554.23a.768.768 0 0 0 .55-.23l3.411-3.41a.784.784 0 0 0 .23-.555.768.768 0 0 0-.23-.55Zm-7.398-.586L41.78 4.77l3.438 3.437-2.305 2.316ZM48.734 9.523l.203.2c.305.308.305.8 0 1.105l-11.316 11.32a.783.783 0 0 1-1.105 0l-.203-.203a.783.783 0 0 1 0-1.105l11.32-11.317a.778.778 0 0 1 1.101 0Zm0 0"/><path fill="#424242" d="m45.402 10.246.754.75-.984.984-.754-.753Zm0 0"/></svg>