<svg xmlns="http://www.w3.org/2000/svg" width="53.303" height="50"><path d="m13.836 49.824-.176-.172-.11-.484-.027-2.277-.03-2.278-.29-.62-.293-.618-.906-.875-1.024-.61-1.027-.609-.68-.664-.683-.668-.914-1.554-.274-.833-.277-.832-.148-1.242-.18-.289-1.04.188-1.038.183-2.043.504-2.047.504-.285-.215-.29-.21-.027-15.446L0 5.266l.586-.461h.383l.586.46V34.7l.328-.125 1.75-.386 1.754-.391 2.664-.445 1.332-.172 1.328-.176.281.21.281.208.032.39.035.395-.3.234-.298.235h-.515l-.836.125-.84.125.004.293v.289l.328 1.554.39.801.395.801.562.617.563.614 1.023.601 1.02.602 1.133 1.015.355.559.36.555.226.695.227.691.05 2.387.047 2.39-.238.305-.242.305h-.746l-.176-.176Zm12.21-.07-.171-.246V37.82l.445-.406h.66l.227.203.223.203v11.688l-.172.246-.176.246h-.863Zm12.263-.059-.243-.304.051-2.391.051-2.387.227-.691.226-.695.356-.555.359-.559 1.133-1.015 2.039-1.203.562-.614.563-.617.789-1.602.328-1.554v-.586l-.36-.063-.359-.066-.758-.074-.753-.074-.555-.438.031-.395.035-.39.282-.207.277-.211 1.332.176 1.328.172 1.336.222 1.332.223 1.75.39 1.754.387.164.063.16.062V5.266l.586-.461h.387l.586.46-.032 15.442-.027 15.445-.285.215-.29.215-3.976-.992-1.09-.2-1.093-.203-.09.149-.094.152-.074.621-.078.621-.547 1.665-.914 1.554-.684.668-.683.664-1.032.614-1.03.609-.442.426-.446.43-.293.628-.292.625-.063 4.555-.05.242-.055.242-.176.172-.172.176h-.746Zm-15.422-8.773-.235-.195-.172-.664-.168-.668-.234-.48-.23-.481-.54-.54-.538-.542-.704-.332-.699-.336-.469-.075-.472-.074-.274-.215-.273-.218v-.633l1.562-7.242-.144-.297-.14-.301-.626-.219-.281.164-.281.16-2.2 4.22-2.203 4.214-.25.203-.254.207-.285-.066-.285-.07-.191-.227-.196-.23v-.493l2.223-4.265 2.227-4.262.3-.32.301-.317.414-.21.41-.216h1.13l.41.172.414.176.32.297.32.3.203.446.207.441v.477l.004.473-.277 1.293-.281 1.289.03.015.028.02 1.61.527 1.613.527.984.493.985.496h.082V5.687l-.692-.449-.695-.445-1.441-.703-1.446-.707-1.222-.395-1.22-.398-1.89-.43-1.218-.203-1.223-.207-3.332.004H8.05l-1.278.203-1.277.2-.5.116v28.102l.918-.074.918-.07 2.48-.008 2.481-.004.422.383v.843l-.492.344H9.94l-1.777-.004-4.289.266-.242-.246-.246-.242-.032-14.852-.03-14.848.116-.414.122-.414.39-.21.922-.177.926-.175L8.496.137 10.437.07 12.383 0l1.61.133 1.609.137 1.5.27 1.5.272 2 .57 1.054.391 1.055.395 1.027.496 1.032.5.949.598.953.597.46-.316.466-.316.8-.454.805-.453 1.027-.465 1.032-.464 1.441-.477 1.445-.473 1.164-.234L36.48.473l1.165-.164L38.812.14 42.587 0l1.777.133 1.778.137 1.582.265 1.586.266.214.117.22.117.116.414.121.414-.03 14.848-.036 14.852-.242.242-.242.246-4.29-.266-1.78.004h-1.778l-.246-.172-.25-.172v-.843l.215-.192.21-.191 2.481.004 2.48.007.919.07.914.075V2.273l-.5-.117-1.278-.199-1.277-.203h-3.328L38.59 1.75l-2.445.406-1.157.278-1.156.28-1.121.388-1.117.386-2.664 1.305-.696.445-.695.45v27.656h.098l.98-.496.977-.496 1.61-.528 1.612-.523.028-.02.031-.015-.281-1.29-.278-1.292v-.473l.004-.477.207-.441.203-.445.32-.301.321-.297.41-.176.414-.172h1.13l.41.215.41.211.625.656 4.43 8.508v.492l-.196.23-.195.227-.282.07-.285.067-.254-.207-.254-.203-2.195-4.215-2.2-4.219-.284-.16-.282-.164-.625.219-.14.297-.14.293.777 3.633.78 3.632v.618l-.273.218-.277.215-.938.149-.703.336-.699.332-.543.546-.543.543-.57 1.204-.078.48-.074.48-.512.512h-.54l-.257-.21-.262-.208.04-.937.187-.57.187-.575.555-1.11 1.477-1.476 1.023-.484 1.02-.48v-.337l-.09-.136-.086-.14-1.367.171-1.364.168-1.328.281-1.324.278-.707.218-.711.22-.926-.267-.922-.27-1.11-.226-1.112-.23-1.38-.172-1.382-.172-.09.14-.086.137-.004.2v.195l.39.125 1.665.797 1.469 1.46.554 1.11.188.574.187.57.02.47.016.468-.258.207-.258.211h-.504Zm-2.399-15.98-.664-.29-2.445-.617-1.5-.191-1.496-.192-5.61.125-.332-.332-.066-.261-.066-.258.125-.23.12-.231.212-.11.207-.109 3.187-.258 3.219.149 2.414.336 2.477.625.863.359.867.363.172.262.172.266-.133.539-.352.351-.351-.008-.352-.003Zm10.559.12-.176-.175-.066-.27-.07-.27.175-.265.172-.262.867-.363.863-.36 2.477-.624 1.207-.168 1.203-.168 1.614-.075 1.609-.074 1.605.13 1.61.128.242.16.246.16.074.235.074.23-.136.328-.133.325-.125.011-.125.016-3.5.02-3.496.019-2 .39-.887.223-.89.223-.813.328-.813.324h-.636Zm-10.39-5.386-.5-.23-.938-.27-.938-.274-1.226-.242-1.23-.242-3.497-.02-3.5-.02-.125-.01-.125-.016-.133-.325-.136-.324.148-.469.246-.16.242-.16 1.61-.125 1.605-.129 3.219.149 2.414.336 2.477.625.863.359.867.36.172.265.172.262-.067.273-.066.27-.176.175-.176.172h-.351l-.352-.004Zm10.39.058-.176-.175-.066-.27-.07-.273.175-.262.172-.266.867-.36.863-.358 2.477-.625 1.207-.168 1.203-.168 1.614-.075 1.609-.074 1.594.125 1.593.13.207.108.207.114.125.23.122.227-.063.261-.066.258-.168.168-.164.168-2.805-.062-2.805-.067-1.465.188-1.468.191-1.125.27-1.13.273-1.656.664h-.636Zm-10.39-5.39-.5-.227-.938-.273-.938-.27-1.226-.246-1.23-.242-3.497-.02-3.5-.015-.125-.016-.125-.012-.133-.328-.136-.324.074-.23.074-.235.246-.16.242-.16 1.61-.129 1.605-.129 3.219.149 2.414.335 2.477.626.863.359.867.363.172.262.172.265-.133.54-.352.351-.703-.008Zm10.39.058-.176-.175-.066-.27-.07-.27.175-.265.172-.262.867-.363.863-.36 2.477-.624 1.207-.168 1.203-.168 1.614-.075 1.609-.074 1.605.129 1.61.129.242.16.246.16.074.235.074.23-.136.324-.133.328-.125.012-.125.016-3.5.02-3.496.019-2 .39-.887.223-.89.223-.813.328-.813.324h-.636Zm-10.39-5.386-.5-.23-.938-.27-.938-.274L17.055 8l-1.23-.242-3.497-.02-3.5-.02-.125-.011-.125-.016-.133-.324-.136-.324.148-.469.246-.16.242-.16 1.61-.125L12.16 6l3.219.148 1.207.165 1.207.171 2.477.625.863.36.867.36.172.265.172.261-.067.274-.066.27-.176.171-.176.176-.351-.004h-.352Zm10.39.054-.176-.172-.066-.27-.07-.273.175-.261.172-.266.867-.36.863-.359 2.477-.625 1.207-.171 1.203-.165 1.614-.074L40.922 6l1.605.129 1.61.125.242.16.246.16.148.469-.136.324-.133.324-.125.016-.125.012-3.5.02-3.496.019-2 .39-.887.227-.89.223-1.626.648h-.636Zm0 0"/></svg>