<svg xmlns="http://www.w3.org/2000/svg" xml:space="preserve" width="640.017" height="600.357" viewBox="0 0 169.338 158.844"><path d="m64.49 212.57-.554-.554-.171-.77-.171-.768-.094-7.232-.095-7.232-.924-1.972-.925-1.971-1.441-1.386-1.442-1.385-3.255-1.935-3.255-1.935-2.168-2.116-2.168-2.117-1.451-2.47-1.45-2.469-.874-2.646-.873-2.646-.24-1.974-.239-1.974-.283-.458-.283-.459-3.3.593-3.298.593-6.5 1.597-6.502 1.598-.907-.678-.908-.678-.09-49.06-.089-49.059.931-.732.931-.732h1.22l.93.731.93.731v93.511l.518-.199.517-.199 5.568-1.235 5.568-1.235 4.233-.709 4.233-.709 4.227-.549 4.226-.55.889.662.889.66.107 1.248.107 1.247-.948.746-.949.746h-1.64l-2.66.396-2.66.395.006.928.006.927.518 2.47.519 2.469 1.25 2.541 1.251 2.542 1.789 1.957 1.788 1.957 3.242 1.908 3.242 1.908 1.8 1.618 1.8 1.618 1.133 1.766 1.133 1.765.722 2.205.723 2.204.157 7.584.158 7.585-.767.97-.766.97h-2.368l-.554-.553zm38.8-.23-.55-.785v-37.128l.71-.642.71-.643h2.099l.71.643.71.642v37.128l-.55.784-.548.784H103.838zm38.952-.187-.767-.97.158-7.585.157-7.584.723-2.204.722-2.205 1.133-1.765 1.133-1.766 1.8-1.618 1.8-1.618 3.242-1.908 3.242-1.908 1.788-1.957 1.789-1.957 1.25-2.542 1.251-2.541.519-2.47.518-2.47.006-.93.006-.93-1.146-.207-1.147-.205-2.398-.237-2.397-.237-.885-.695-.884-.696.107-1.247.107-1.248.889-.66.889-.661 4.226.549 4.227.55 4.233.708 4.233.71 5.568 1.234 5.568 1.235.517.199.518.199V71.005l.93-.731.93-.731h1.22l.93.732.931.732-.089 49.06-.09 49.06-.913.682-.913.682-6.319-1.573-6.318-1.572-3.464-.64-3.465-.64-.294.476-.294.476-.24 1.974-.239 1.974-.873 2.646-.873 2.646-1.451 2.47-1.45 2.469-2.169 2.117-2.168 2.116-3.28 1.94-3.28 1.94-1.406 1.357-1.406 1.357-.935 1.995-.935 1.995-.095 7.232-.094 7.232-.17.769-.172.769-.554.554-.553.553h-2.368zm-48.99-27.87-.748-.617-.541-2.116-.542-2.117-.736-1.528-.735-1.527-1.717-1.717-1.716-1.716-2.225-1.062-2.226-1.062-1.493-.239-1.493-.239-.87-.684-.87-.684v-2.014l2.483-11.504 2.482-11.503-.455-.95-.455-.949-.993-.35-.993-.349-.893.518-.892.517-6.99 13.395-6.99 13.395-.802.65-.803.65-.904-.213-.905-.214-.617-.73-.617-.729V167.028l7.066-13.545 7.067-13.545.959-1.01.96-1.01 1.308-.674 1.309-.673H81.243l1.312.548 1.312.547 1.014.952 1.015.951.653 1.411.653 1.411.008 1.506.008 1.505-.887 4.104-.887 4.105.093.05.094.051 5.115 1.677 5.115 1.677 3.133 1.57 3.132 1.57h.261V72.348l-2.204-1.422-2.205-1.421-4.586-2.237-4.586-2.237-3.88-1.262-3.881-1.263-2.999-.684-2.998-.685-3.881-.647-3.88-.648-10.584.007-10.583.006-4.057.636-4.057.636-.794.19-.794.19v89.273l2.91-.233 2.911-.232 7.882-.018 7.88-.018.674.61.674.609v2.673l-.784.549-.784.549-5.654-.004-5.655-.004-6.81.417-6.809.417-.775-.775-.775-.776-.104-47.174-.104-47.174.38-1.317.382-1.317.618-.331.618-.33 2.94-.559 2.941-.557 4.279-.537 4.278-.536 6.173-.215 6.174-.215 5.115.424 5.116.423 4.762.867 4.763.867 3.175.902 3.175.902 3.351 1.247 3.351 1.247 3.272 1.585 3.272 1.585 3.02 1.897 3.022 1.897 1.468-1.004 1.469-1.004 2.55-1.44 2.55-1.439 3.27-1.477 3.271-1.477 4.586-1.509 4.586-1.508 3.705-.74 3.704-.741 3.704-.529 3.704-.528 5.997-.225 5.998-.224 5.644.426 5.644.426 5.032.846 5.032.847.689.368.688.369.381 1.317.381 1.317-.104 47.174-.104 47.174-.775.776-.775.775-6.81-.417-6.81-.417-5.654.004-5.654.004-.784-.55-.784-.548v-2.673l.674-.61.673-.61 7.881.019 7.882.018 2.91.232 2.91.233V61.505l-.793-.19-.794-.189-4.057-.636-4.057-.636-10.583-.006-10.583-.007-3.881.642-3.88.64-3.676.892-3.676.89-3.556 1.229-3.556 1.228-4.234 2.071-4.233 2.072-2.205 1.42-2.205 1.422v87.86h.313l3.107-1.577 3.107-1.576 5.115-1.671 5.115-1.67.094-.051.093-.051-.887-4.105-.887-4.104.008-1.505.008-1.506.653-1.41.653-1.412 1.015-.951 1.014-.952 1.312-.547 1.312-.548H132.756l1.308.673 1.309.673.989 1.042.989 1.041 7.037 13.514 7.036 13.514V168.595l-.617.73-.617.73-.905.213-.904.213-.802-.65-.803-.65-6.983-13.395-6.983-13.395-.9-.517-.899-.518-.993.35-.993.35-.449.934-.448.935 2.476 11.54 2.476 11.539v1.971l-.87.684-.87.684-1.493.239-1.493.239-2.226 1.062-2.225 1.062-1.728 1.728-1.728 1.728-.904 1.91-.904 1.911-.245 1.53-.244 1.53-.81.81-.809.81h-1.717l-.822-.666-.82-.665.058-1.484.06-1.485.595-1.82.595-1.818.883-1.762.883-1.762 2.346-2.346 2.346-2.346 3.245-1.537 3.246-1.536-.002-.53-.002-.529-.28-.44-.279-.44-4.34.538-4.34.537-4.21.89-4.212.889-2.25.695-2.251.695-2.937-.85-2.936-.85-3.528-.729-3.528-.729-4.39-.542-4.39-.543-.279.44-.279.44-.005.628-.005.628.618.198.617.198 2.646 1.26 2.646 1.262 2.331 2.324 2.332 2.325.883 1.762.882 1.762.596 1.819.595 1.819.06 1.485.058 1.484-.82.665-.822.665H94l-.747-.617zm-7.622-50.77-2.116-.912-3.88-.982-3.881-.982-4.763-.61-4.762-.61-8.906.202-8.906.202-.53-.53-.53-.53-.208-.825-.207-.825.391-.73.391-.73.659-.353.658-.352 5.066-.404 5.066-.405 5.115.235 5.116.234 3.83.533 3.83.534 3.933.993 3.934.993 2.75 1.145 2.75 1.145.55.839.549.839-.216.86-.216.86-.553.553-.554.554-1.122-.015-1.12-.014-2.118-.912zm33.54.387-.554-.554-.216-.86-.215-.86.55-.838.549-.839 2.75-1.145 2.75-1.145 3.933-.993 3.934-.993 3.83-.534 3.83-.533 5.115-.234 5.116-.235 5.106.408 5.107.407.776.508.775.509.235.74.235.741-.427 1.033-.428 1.032-.398.044-.398.044-11.113.062-11.112.063-3.175.62-3.175.62-2.822.712-2.823.711-2.584 1.032-2.584 1.03h-2.013zm-33.01-17.117-1.588-.723-2.975-.865-2.976-.864-3.903-.772-3.904-.771-11.113-.06-11.112-.059-.398-.043-.399-.044-.427-1.032-.428-1.033.235-.74.236-.742.775-.508.776-.508 5.106-.408 5.107-.407 5.115.234 5.116.235 3.83.533 3.83.533 3.933.994 3.934.993 2.75 1.145 2.75 1.145.55.839.549.838-.216.86-.216.86-.553.554-.554.554-1.122-.008-1.12-.008-1.588-.723zm33.01.184-.554-.554-.216-.86-.215-.86.55-.838.549-.84 2.75-1.144 2.75-1.145 3.933-.993 3.934-.994 3.83-.533 3.83-.533 5.115-.235 5.116-.234 5.066.404 5.066.404.658.353.659.352.39.73.391.731-.207.824-.206.825-.531.53-.53.531-8.906-.202-8.906-.203-4.66.598-4.66.597-3.582.867-3.582.868-2.633 1.054-2.632 1.054h-2.013zM86.16 99.849l-1.588-.722-2.975-.865-2.976-.864-3.903-.772-3.904-.772-11.113-.059-11.112-.06-.398-.043-.399-.043-.427-1.033-.428-1.032.235-.741.236-.741.775-.508.776-.508 5.106-.408 5.107-.407 5.115.234 5.116.235 3.83.533 3.83.533 3.933.993 3.934.994 2.75 1.145 2.75 1.145.55.838.549.84-.216.859-.216.86-.553.554-.554.553-1.122-.008-1.12-.008-1.588-.722zm33.01.184-.554-.553-.216-.86-.215-.86.55-.839.549-.839 2.75-1.144 2.75-1.145 3.933-.994 3.934-.993 3.83-.533 3.83-.533 5.115-.235 5.116-.234 5.106.407 5.107.408.776.508.775.508.235.74.235.742-.427 1.032-.428 1.032-.398.044-.398.044-11.113.063-11.112.062-3.175.62-3.175.62-2.822.712-2.823.711-2.584 1.032-2.584 1.031h-2.013zM86.16 82.916l-1.588-.723-2.975-.864-2.976-.865-3.903-.771-3.904-.772-11.113-.06-11.112-.058-.398-.044-.399-.044-.427-1.032-.428-1.033.235-.74.236-.741.775-.509.776-.508 5.106-.407 5.107-.408 5.115.235 5.116.234 3.83.533 3.83.534 3.933.993 3.934.993 2.75 1.145 2.75 1.145.55.839.549.839-.216.86-.216.86-.553.553-.554.554-1.122-.008-1.12-.008-1.588-.722zm33.01.184-.554-.554-.216-.86-.215-.86.55-.838.549-.839 2.75-1.145 2.75-1.145 3.933-.993 3.934-.993 3.83-.534 3.83-.533 5.115-.234 5.116-.235 5.106.408 5.107.407.776.508.775.509.235.74.235.741-.427 1.033-.428 1.032-.398.044-.398.044-11.113.062-11.112.063-3.175.62-3.175.62-2.822.712-2.823.711-2.584 1.032-2.584 1.031h-2.013z" style="fill:#000;stroke-width:.352778" transform="translate(-20.54 -54.279)"/></svg>