<?xml version="1.0" encoding="UTF-8"?>
<svg xmlns="http://www.w3.org/2000/svg" xmlns:xlink="http://www.w3.org/1999/xlink" width="15" height="15" viewBox="0 0 15 15">
<path fill-rule="nonzero" fill="rgb(86.274511%, 88.627452%, 88.627452%)" fill-opacity="1" d="M 11.515625 14.871094 L 1.101562 14.871094 C 0.753906 14.871094 0.46875 14.585938 0.46875 14.238281 L 0.46875 1.285156 C 0.46875 0.933594 0.753906 0.652344 1.101562 0.652344 L 11.515625 0.652344 C 11.863281 0.652344 12.148438 0.933594 12.148438 1.285156 L 12.148438 14.238281 C 12.148438 14.585938 11.863281 14.871094 11.515625 14.871094 Z M 11.515625 14.871094 "/>
<path fill-rule="nonzero" fill="rgb(58.823532%, 66.274512%, 69.803923%)" fill-opacity="1" d="M 9.785156 4.347656 L 2.289062 4.347656 C 2.070312 4.347656 1.894531 4.171875 1.894531 3.953125 C 1.894531 3.734375 2.070312 3.558594 2.289062 3.558594 L 9.785156 3.558594 C 10.003906 3.558594 10.183594 3.734375 10.183594 3.953125 C 10.183594 4.171875 10.003906 4.347656 9.785156 4.347656 Z M 10.183594 5.746094 C 10.183594 5.53125 10.003906 5.351562 9.785156 5.351562 L 2.289062 5.351562 C 2.070312 5.351562 1.894531 5.53125 1.894531 5.746094 C 1.894531 5.964844 2.070312 6.144531 2.289062 6.144531 L 9.785156 6.144531 C 10.003906 6.144531 10.183594 5.964844 10.183594 5.746094 Z M 5.121094 7.542969 C 5.121094 7.324219 4.941406 7.148438 4.722656 7.148438 L 2.289062 7.148438 C 2.070312 7.148438 1.894531 7.324219 1.894531 7.542969 C 1.894531 7.761719 2.070312 7.9375 2.289062 7.9375 L 4.722656 7.9375 C 4.941406 7.9375 5.121094 7.761719 5.121094 7.542969 Z M 10.183594 9.339844 C 10.183594 9.121094 10.003906 8.941406 9.785156 8.941406 L 2.289062 8.941406 C 2.070312 8.941406 1.894531 9.121094 1.894531 9.339844 C 1.894531 9.554688 2.070312 9.734375 2.289062 9.734375 L 9.785156 9.734375 C 10.003906 9.734375 10.183594 9.554688 10.183594 9.339844 Z M 5.121094 12.816406 C 5.121094 12.597656 4.941406 12.417969 4.722656 12.417969 L 2.289062 12.417969 C 2.070312 12.417969 1.894531 12.597656 1.894531 12.816406 C 1.894531 13.035156 2.070312 13.210938 2.289062 13.210938 L 4.722656 13.210938 C 4.941406 13.210938 5.121094 13.035156 5.121094 12.816406 Z M 5.121094 12.816406 "/>
<path fill-rule="nonzero" fill="rgb(100%, 43.137255%, 51.372552%)" fill-opacity="1" d="M 13.8125 4.117188 C 13.238281 3.542969 12.582031 3.265625 12.347656 3.5 L 10.765625 5.082031 L 12.847656 7.160156 L 14.429688 5.578125 C 14.660156 5.347656 14.386719 4.691406 13.8125 4.117188 Z M 13.8125 4.117188 "/>
<path fill-rule="nonzero" fill="rgb(74.901962%, 73.725492%, 68.627453%)" fill-opacity="1" d="M 12.808594 5.121094 C 12.15625 4.464844 11.40625 4.148438 11.140625 4.417969 L 9.519531 6.035156 L 11.894531 8.40625 L 13.511719 6.789062 C 13.777344 6.523438 13.464844 5.773438 12.808594 5.121094 Z M 12.808594 5.121094 "/>
<path fill-rule="nonzero" fill="rgb(16.862746%, 14.901961%, 13.333334%)" fill-opacity="1" d="M 6.566406 12.441406 L 5.136719 13.058594 C 5.035156 13.105469 4.914062 13.058594 4.867188 12.953125 C 4.847656 12.902344 4.847656 12.84375 4.867188 12.789062 L 5.488281 11.363281 C 5.667969 10.949219 6.152344 10.761719 6.566406 10.941406 C 6.980469 11.121094 7.167969 11.601562 6.988281 12.015625 C 6.902344 12.214844 6.746094 12.359375 6.566406 12.441406 Z M 6.566406 12.441406 "/>
<path fill-rule="nonzero" fill="rgb(100%, 83.137256%, 41.176471%)" fill-opacity="1" d="M 12.578125 7.71875 C 12.578125 7.71875 12.578125 7.714844 12.582031 7.710938 C 12.785156 7.417969 12.472656 6.707031 11.847656 6.082031 C 11.21875 5.457031 10.511719 5.140625 10.214844 5.347656 C 10.214844 5.347656 10.210938 5.351562 10.210938 5.351562 C 10.207031 5.355469 10.203125 5.355469 10.203125 5.359375 C 10.195312 5.363281 10.1875 5.371094 10.179688 5.375 L 6.417969 9.140625 C 6.417969 9.140625 5.351562 11.773438 5.753906 12.175781 C 6.15625 12.578125 8.789062 11.511719 8.789062 11.511719 L 12.554688 7.75 C 12.558594 7.742188 12.566406 7.734375 12.570312 7.726562 C 12.574219 7.726562 12.574219 7.722656 12.578125 7.71875 Z M 12.578125 7.71875 "/>
<path fill-rule="nonzero" fill="rgb(89.803922%, 66.666669%, 43.137255%)" fill-opacity="1" d="M 6.417969 9.140625 L 6.332031 9.660156 C 6.320312 9.738281 6.386719 9.804688 6.464844 9.789062 L 6.835938 9.730469 C 6.910156 9.71875 6.976562 9.777344 6.96875 9.851562 L 6.925781 10.273438 C 6.921875 10.308594 6.9375 10.34375 6.960938 10.367188 C 6.988281 10.390625 7.023438 10.402344 7.058594 10.398438 L 7.433594 10.339844 C 7.511719 10.328125 7.578125 10.394531 7.5625 10.472656 L 7.5 10.832031 C 7.488281 10.90625 7.546875 10.972656 7.625 10.964844 L 8.046875 10.921875 C 8.082031 10.917969 8.117188 10.929688 8.140625 10.957031 C 8.164062 10.980469 8.175781 11.015625 8.171875 11.046875 L 8.128906 11.476562 C 8.121094 11.550781 8.183594 11.609375 8.257812 11.601562 L 8.796875 11.519531 L 5.753906 12.796875 C 5.996094 12.550781 5.367188 11.921875 5.125 12.167969 Z M 6.417969 9.140625 "/>
<path fill-rule="nonzero" fill="rgb(100%, 71.372551%, 21.176471%)" fill-opacity="1" d="M 7.199219 9.277344 C 7.140625 9.277344 7.089844 9.242188 7.066406 9.191406 C 7.046875 9.136719 7.058594 9.074219 7.097656 9.035156 L 10.238281 5.894531 C 10.292969 5.839844 10.382812 5.84375 10.4375 5.898438 C 10.492188 5.953125 10.492188 6.039062 10.4375 6.09375 L 7.296875 9.234375 C 7.273438 9.261719 7.234375 9.277344 7.199219 9.277344 Z M 8.101562 10.039062 L 11.242188 6.898438 C 11.292969 6.839844 11.292969 6.753906 11.238281 6.699219 C 11.183594 6.644531 11.097656 6.644531 11.039062 6.695312 L 7.898438 9.835938 C 7.847656 9.894531 7.847656 9.980469 7.902344 10.035156 C 7.957031 10.089844 8.046875 10.089844 8.101562 10.039062 Z M 8.902344 10.839844 L 12.042969 7.699219 C 12.097656 7.644531 12.09375 7.554688 12.042969 7.5 C 11.988281 7.445312 11.898438 7.445312 11.84375 7.5 L 8.703125 10.640625 C 8.648438 10.695312 8.648438 10.78125 8.703125 10.835938 C 8.757812 10.890625 8.847656 10.894531 8.902344 10.839844 Z M 8.902344 10.839844 "/>
<path fill-rule="nonzero" fill="rgb(72.549021%, 77.254903%, 77.64706%)" fill-opacity="1" d="M 8.542969 1.621094 L 3.964844 1.621094 C 3.730469 1.621094 3.539062 1.429688 3.539062 1.195312 L 3.539062 0.535156 C 3.539062 0.300781 3.730469 0.109375 3.964844 0.109375 L 8.542969 0.109375 C 8.777344 0.109375 8.96875 0.300781 8.96875 0.535156 L 8.96875 1.195312 C 8.96875 1.429688 8.777344 1.621094 8.542969 1.621094 Z M 8.542969 1.621094 "/>
</svg>
