<svg xmlns="http://www.w3.org/2000/svg" width="50" height="50"><path fill="#231F20" d="M43.895 16c1.73 1.57 2.52 1.715 2.214 3.992-.257 1.93-1.484 2.688-2.789 3.953l-6.164 6c-2.191 2.133-4.402 4.809-7.34 5.813-2.082.715-4.007.691-5.996 1.754l1.59 1.222c.453-1.554.48-3.203.906-4.73 1.032-3.715 3.38-5.79 5.95-8.426 1.629-1.676 9.422-11.715 12.226-9.332 1.055.899 2.59-.625 1.528-1.531-4.512-3.84-8.817 2.687-11.692 5.637-2.848 2.93-6.441 5.793-8.8 9.128-1.813 2.56-1.352 5.75-2.204 8.68-.27.934.781 1.656 1.59 1.219 2.965-1.586 6.273-1.188 9.012-3.316 3.488-2.708 6.527-6.31 9.691-9.387 1.738-1.692 5.043-3.832 5.52-6.422.48-2.586-2.035-4.258-3.711-5.781-1.028-.938-2.563.59-1.531 1.527Zm0 0"/><path fill="#231F20" d="M38.004 19.512c1.164.336 2.144 1.77 2.965 2.605.851.871 1.59 1.551 2.277 2.567.774 1.148 2.649.066 1.867-1.094-.418-.613-.758-1.356-1.324-1.84a28.375 28.375 0 0 1-1.738-1.617c-1.04-1.059-2-2.281-3.469-2.707-1.34-.387-1.914 1.699-.578 2.086Zm-13.8 17.828-15.786.152c-1.39.012-1.395 2.176 0 2.16l15.785-.148c1.39-.012 1.395-2.176 0-2.164ZM8.02 32.312h16.023c1.395 0 1.395-2.164 0-2.164H8.02c-1.395 0-1.395 2.165 0 2.165Zm.398-7.132h15.785c1.395 0 1.395-2.164 0-2.164H8.418c-1.39 0-1.395 2.164 0 2.164Zm0-7.133h7.531c1.395 0 1.395-2.164 0-2.164H8.418c-1.39 0-1.395 2.164 0 2.164Zm0 0"/><path fill="#231F20" d="m35.188 32.504.132 8.176.055 3.633c.031 1.824.441 2.175-1.027 2.988-1.899 1.05-6.262.277-8.473.277-5.555 0-11.105-.02-16.66-.07-1.152-.008-2.574.199-3.703-.035-1.797-.368-1.989.254-2.211-1.973-.551-5.496.011-11.352.02-16.883l.015-15.945c0-2.164-.82-6.508.008-8.442 1.05-2.46 4.683-1.687 6.847-1.71 2.672-.028 5.348-.04 8.02-.032 3.742.008 5.66.38 8.707 3.012 1.727 1.5 3.375 3.152 4.941 4.816 2.922 3.106 3.297 4.899 3.332 8.977.012 1.39 2.176 1.395 2.164 0-.027-3.04.305-5.281-1.496-7.719C33.777 8.758 31 6.336 28.445 3.973 27.082 2.707 25.727 1.125 23.95.508 20.758-.602 15.32.312 11.973.34 8.676.367 2.488-1.3 1.18 2.355c-.606 1.692-.004 4.743-.004 6.567l-.008 6.566-.012 12.192-.011 12.195c-.004 1.742-.91 7.164.238 8.68.656.867 1.34.843 2.281 1.062 3.836.895 8.973.086 12.953.106 4.32.02 8.637.023 12.957.015 1.79-.004 5.555.867 7.04-.37 1.28-1.071.945-2.622.94-4.145-.003-4.239-.132-8.477-.202-12.715-.02-1.39-2.184-1.395-2.164 0Zm0 0"/><path fill="#231F20" d="m22.703 2.863.047 7.465c.008 1.32-.555 4.012.547 5.027 1.008.938 3.223.446 4.441.45l7.606.004c1.39 0 1.394-2.164 0-2.164l-5.371-.004h-2.684c-.246 0-2.531.164-2.684-.004.145.156.317-2.278.317-2.375l-.02-2.801-.035-5.598c-.012-1.39-2.176-1.394-2.164 0Zm0 0"/></svg>