<svg xmlns="http://www.w3.org/2000/svg" width="48" height="48"><circle cx="36" cy="36" r="23" fill="#fcea2b" transform="translate(-12 -12)"/><g transform="translate(-12 -12)"><circle cx="36" cy="36" r="23" fill="none" stroke="#000" stroke-linecap="round" stroke-linejoin="round" stroke-width="2"/><path fill="none" stroke="#000" stroke-linecap="round" stroke-linejoin="round" stroke-width="2" d="M45.815 44.93A19.91 19.91 0 0 1 36 47.5c-3.567 0-6.915-.934-9.815-2.57"/><path d="M30 31a3.001 3.001 0 0 1-6 0c0-1.655 1.345-3 3-3s3 1.345 3 3M48 31a3.001 3.001 0 0 1-6 0c0-1.655 1.345-3 3-3s3 1.345 3 3"/></g></svg>