<svg xmlns="http://www.w3.org/2000/svg" xml:space="preserve" width="681.333" height="607.059" viewBox="0 0 180.269 160.618"><path d="m27.414 217.512-1.493-.296-1.167-.554-1.166-.553-1.287-1.061-1.286-1.06-.993-2.022-.993-2.021V64.904l1.065-2.083 1.065-2.081 1.722-1.302 1.723-1.302 1.623-.472 1.622-.472h162.63l1.623.472 1.622.472 1.723 1.302 1.723 1.302 1.064 2.081 1.065 2.082v145.092l-1.065 2.081-1.064 2.082-1.697 1.282-1.696 1.282-1.296.488-1.296.489-81.139.055-81.139.055zm49.647-17.445v-8.996H28.025v17.992h49.036zm56.445 0v-8.996H84.822v17.992h48.684zm56.797 0v-8.996h-49.036v17.992h49.036zm-113.242-25.4v-8.996H28.025v17.992h49.036zm56.445 0v-8.996H84.822v17.992h48.684zm56.797 0v-8.996h-49.036v17.992h49.036zM77.061 149.265v-8.999l-24.43.09-24.43.091-.094 8.908-.094 8.908h49.048zm56.445.002v-8.996H84.822v17.991h48.684zm56.715.088-.094-8.908-24.43-.09-24.43-.091v17.996h49.048zm-113.16-25.49v-8.999l-24.43.09-24.43.091-.094 8.908-.094 8.908h49.048zm56.445.002v-8.996H84.822v17.991h48.684zm56.715.088-.094-8.908-24.43-.09-24.43-.091v17.996h49.048zM77.06 98.82v-8.996H28.025v17.521l.235.235.236.236H77.06Zm56.445 0v-8.996H84.822v17.992h48.684zm56.715-.089.094-8.907h-49.048v17.996l24.43-.09 24.43-.09z" style="fill:#000;stroke-width:.352778" transform="translate(-19.03 -57.192)"/></svg>