<svg xmlns="http://www.w3.org/2000/svg" width="56.118" height="50"><path d="m2.61 49.906-.465-.09-.364-.171-.363-.176-.398-.328-.403-.332L0 47.55V2.402l.664-1.297 1.07-.812.508-.145L2.746 0h50.625l.508.148.504.145 1.07.812.664 1.297v45.164l-.664 1.297-1.055.797-.402.153-.406.152-25.258.02L3.074 50Zm15.456-5.43v-2.8H2.801v5.601h15.265Zm17.57 0v-2.8H20.48v5.601h15.157Zm17.68 0v-2.8H38.051v5.601h15.265Zm-35.25-7.906v-2.8H2.801v5.601h15.265Zm17.57 0v-2.8H20.48v5.601h15.157Zm17.68 0v-2.8H38.051v5.601h15.265Zm-35.25-7.91v-2.8l-7.605.03-7.606.028-.03 2.773-.028 2.774h15.27Zm17.57.004v-2.8H20.48v5.597h15.157Zm17.657.027-.031-2.773-7.606-.027-7.605-.032v5.602h15.27Zm-35.227-7.937v-2.8l-7.605.026-7.606.032-.03 2.77-.028 2.773h15.27Zm17.57 0v-2.797H20.48v5.598h15.157Zm17.657.027-.031-2.77-7.606-.03-7.605-.028v5.602h15.27Zm-35.227-7.824V10.16H2.801v5.453l.144.145h15.121Zm17.57 0V10.16H20.48v5.598h15.157Zm17.657-.027.027-2.77H38.05v5.602l7.606-.032 7.606-.027Zm0 0"/></svg>