<svg xmlns="http://www.w3.org/2000/svg" width="45.313" height="50"><path d="M0 25V0h27.195l6.715 6.715 6.715 6.71v6.887H37.5v-4.687H25v-12.5H3.125v43.75H37.5v-4.688h3.125V50H0Zm35.254-12.523v-.028l-3.566-3.562-3.563-3.563V12.5h7.129ZM17.188 32.812v-6.25h-3.125v-3.125h9.374v3.125h-3.125v12.5h-3.125ZM25 37.282v-1.786l1.418-2.121 1.414-2.125-1.414-2.125L25 27.004v-3.567h3.125v2.676l.758 1.153.754 1.148h.097l.758-1.148.758-1.153v-2.675h3.125v3.566l-1.418 2.121-1.414 2.125 1.414 2.125 1.418 2.121v3.566H31.25v-2.675l-.758-1.153-.758-1.148h-.097l-.754 1.148-.758 1.153v2.675H25Zm14.063-4.47v-6.25h-3.126v-3.125h9.376v3.125h-3.126v12.5h-3.124Zm0 0"/></svg>