<svg xmlns="http://www.w3.org/2000/svg" xml:space="preserve" width="618.667" height="682.667" viewBox="0 0 163.689 180.622"><path d="M23.256 128.255V37.944h98.246l24.255 24.252L170.01 86.45v24.872h-11.289V94.388h-45.155V49.233H34.545v158.044h124.178v-16.933h11.288v28.222H23.256Zm127.352-45.246v-.09l-12.876-12.873-12.876-12.872V83.099h25.752zm-65.263 73.468v-22.578H74.056V122.61h33.866V133.9H96.633v45.156H85.345zm28.222 16.138v-6.44l5.117-7.67 5.118-7.672-5.118-7.672-5.117-7.672V122.61h11.289v9.673l2.734 4.153 2.734 4.153h.352l2.735-4.153 2.734-4.153v-9.673h11.288v12.88l-5.117 7.67-5.118 7.673 5.118 7.671 5.117 7.672V179.055h-11.288v-9.672l-2.735-4.153-2.734-4.153h-.352l-2.734 4.153-2.734 4.153v9.672h-11.289zm50.8-16.138v-22.578h-11.289V122.61H186.945V133.9h-11.289v45.156h-11.289z" style="fill:#000;stroke-width:.352778" transform="translate(-23.256 -37.944)"/></svg>