<svg xmlns="http://www.w3.org/2000/svg" width="566.644" height="220.931"><defs><clipPath id="a" clipPathUnits="userSpaceOnUse"><path d="M0 .028h595.275v841.861H0Z" clip-rule="evenodd"/></clipPath></defs><path d="M56.296 785.224h424.97M56.665 785.593V619.908M136.403 785.593V619.908M480.898 785.593V619.908M480.898 785.593V619.908M56.296 770.229h424.97M56.296 755.234h424.97M56.296 740.239h424.97M56.296 725.243h424.97M56.296 710.248h424.97M56.296 695.253h424.97M56.296 680.258h424.97M56.296 665.262h424.97M56.296 650.267h424.97M56.296 635.272h424.97M56.296 620.276h424.97M56.296 620.276h424.97" style="fill:none;stroke:#000;stroke-width:.75003;stroke-linecap:butt;stroke-linejoin:round;stroke-miterlimit:10;stroke-dasharray:none;stroke-opacity:1" transform="matrix(1.33333 0 0 -1.33333 -75.053 1047.465)"/><text xml:space="preserve" style="font-variant:normal;font-weight:700;font-size:11.991px;font-family:&quot;Open Sans&quot;;-inkscape-font-specification:OpenSans-Bold;writing-mode:lr-tb;fill:#000;fill-opacity:1;fill-rule:nonzero;stroke:none" transform="matrix(1.33333 0 0 1.33333 12.48 14.559)"><tspan x="0 9.1851063 16.583553 22.567062 27.759165 35.637253 42.831852 54.607014" y="0">Hostname</tspan></text><text xml:space="preserve" style="font-variant:normal;font-weight:700;font-size:11.991px;font-family:&quot;Open Sans&quot;;-inkscape-font-specification:OpenSans-Bold;writing-mode:lr-tb;fill:#000;fill-opacity:1;fill-rule:nonzero;stroke:none" transform="matrix(1.33333 0 0 1.33333 309.287 14.559)"><tspan x="0 11.295522 18.69397 26.272282 33.358963 37.040199" y="0">Modell</tspan></text><text xml:space="preserve" style="font-variant:normal;font-weight:400;font-size:11.991px;font-family:&quot;Open Sans&quot;;-inkscape-font-specification:OpenSans-Regular;writing-mode:lr-tb;fill:#000;fill-opacity:1;fill-rule:nonzero;stroke:none" transform="matrix(1.33333 0 0 1.33333 1.86 34.553)"><tspan x="0 4.1968498 9.0891781 15.780156 21.475882 28.166859 35.553314 38.646992 42.232304 48.911289 51.909039 56.105888" y="0">tresen (alt)</tspan></text><text xml:space="preserve" style="font-variant:normal;font-weight:400;font-size:11.991px;font-family:&quot;Open Sans&quot;;-inkscape-font-specification:OpenSans-Regular;writing-mode:lr-tb;fill:#000;fill-opacity:1;fill-rule:nonzero;stroke:none" transform="matrix(1.33333 0 0 1.33333 108.179 34.553)"><tspan x="0 8.6934748 11.691225 18.274284 24.953272 32.339725 38.335228 42.532078 49.223057 52.316734 61.202065 68.0849 74.967735 85.759628 89.644714 98.338188 105.22102 114.10635 117.99144 126.68491 133.26797 141.05014 147.93297 151.02664 162.20226 165.20001 169.39685 172.49054 175.78806 183.17451 187.37137 194.06235 197.06009 200.15378 207.73209 214.42307 217.42081 224.11179 229.00412 236.19872 243.58517 246.67885 255.37233 262.25516 269.138" y="0">Gigabyte H61M-D2H-USB3 mit Intel Celeron G530</tspan></text><text xml:space="preserve" style="font-variant:normal;font-weight:400;font-size:11.991px;font-family:&quot;Open Sans&quot;;-inkscape-font-specification:OpenSans-Regular;writing-mode:lr-tb;fill:#000;fill-opacity:1;fill-rule:nonzero;stroke:none" transform="matrix(1.33333 0 0 1.33333 1.86 54.547)"><tspan x="0 4.8923278 11.571315 18.957771 30.133383" y="0">raum2</tspan></text><text xml:space="preserve" style="font-variant:normal;font-weight:400;font-size:11.991px;font-family:&quot;Open Sans&quot;;-inkscape-font-specification:OpenSans-Regular;writing-mode:lr-tb;fill:#000;fill-opacity:1;fill-rule:nonzero;stroke:none" transform="matrix(1.33333 0 0 1.33333 108.179 54.547)"><tspan x="0 3.2975249 10.683981 14.880831 21.57181 24.569559 27.663237 35.24155 41.932526 44.930279 51.621254 56.513584 63.708183 71.094643 74.188316 81.766632 88.961227 97.654701 100.74838 109.44186 116.32469 123.20753" y="0">Intel Celeron CPU G530</tspan></text><text xml:space="preserve" style="font-variant:normal;font-weight:400;font-size:11.991px;font-family:&quot;Open Sans&quot;;-inkscape-font-specification:OpenSans-Regular;writing-mode:lr-tb;fill:#000;fill-opacity:1;fill-rule:nonzero;stroke:none" transform="matrix(1.33333 0 0 1.33333 1.86 74.54)"><tspan x="0 4.8923278 11.571315 18.957771 30.133383 37.016216 43.899052" y="0">raum4+5</tspan></text><text xml:space="preserve" style="font-variant:normal;font-weight:400;font-size:11.991px;font-family:&quot;Open Sans&quot;;-inkscape-font-specification:OpenSans-Regular;writing-mode:lr-tb;fill:#000;fill-opacity:1;fill-rule:nonzero;stroke:none" transform="matrix(1.33333 0 0 1.33333 108.179 74.54)"><tspan x="0 3.2975249 10.683981 14.880831 21.57181 24.569559 27.663237 34.857838 41.548817 48.935272 53.132122 56.129871 63.516327 74.69194 77.785614 85.36393 92.558533 101.25201 104.34568 113.03915 119.92199 126.80482" y="0">Intel Pentium CPU G640</tspan></text><text xml:space="preserve" style="font-variant:normal;font-weight:400;font-size:11.991px;font-family:&quot;Open Sans&quot;;-inkscape-font-specification:OpenSans-Regular;writing-mode:lr-tb;fill:#000;fill-opacity:1;fill-rule:nonzero;stroke:none" transform="matrix(1.33333 0 0 1.33333 1.86 94.535)"><tspan x="0 6.678987 12.374712 19.065689" y="0">acer</tspan></text><text xml:space="preserve" style="font-variant:normal;font-weight:400;font-size:11.991px;font-family:&quot;Open Sans&quot;;-inkscape-font-specification:OpenSans-Regular;writing-mode:lr-tb;fill:#000;fill-opacity:1;fill-rule:nonzero;stroke:none" transform="matrix(1.33333 0 0 1.33333 108.179 94.535)"><tspan x="0 3.2975249 10.683981 14.880831 21.57181 24.569559 27.663237 35.24155 41.932526 44.930279 51.621254 56.513584 63.708183 71.094643 74.188316 81.766632 88.961227 97.654701 100.74838 109.74163 116.62447 123.5073 130.39014" y="0">Intel Celeron CPU N3150</tspan></text><text xml:space="preserve" style="font-variant:normal;font-weight:400;font-size:11.991px;font-family:&quot;Open Sans&quot;;-inkscape-font-specification:OpenSans-Regular;writing-mode:lr-tb;fill:#000;fill-opacity:1;fill-rule:nonzero;stroke:none" transform="matrix(1.33333 0 0 1.33333 1.86 114.528)"><tspan x="0 2.99775 9.6887283 17.075184 24.269785 30.265284 37.459885 44.342716" y="0">lenovo17</tspan></text><text xml:space="preserve" style="font-variant:normal;font-weight:400;font-size:11.991px;font-family:&quot;Open Sans&quot;;-inkscape-font-specification:OpenSans-Regular;writing-mode:lr-tb;fill:#000;fill-opacity:1;fill-rule:nonzero;stroke:none" transform="matrix(1.33333 0 0 1.33333 108.179 114.528)"><tspan x="0 3.2975249 10.683981 14.880831 21.57181 24.569559 27.663237 34.857838 41.548817 48.935272 53.132122 56.129871 63.516327 74.69194 77.785614 85.36393 92.558533 101.25201 104.34568 111.22852 118.11135 124.99419 131.87701" y="0">Intel Pentium CPU 4415U</tspan></text><text xml:space="preserve" style="font-variant:normal;font-weight:400;font-size:11.991px;font-family:&quot;Open Sans&quot;;-inkscape-font-specification:OpenSans-Regular;writing-mode:lr-tb;fill:#000;fill-opacity:1;fill-rule:nonzero;stroke:none" transform="matrix(1.33333 0 0 1.33333 1.86 134.521)"><tspan x="0 7.386456 14.077434 17.075184" y="0">dell</tspan></text><text xml:space="preserve" style="font-variant:normal;font-weight:400;font-size:11.991px;font-family:&quot;Open Sans&quot;;-inkscape-font-specification:OpenSans-Regular;writing-mode:lr-tb;fill:#000;fill-opacity:1;fill-rule:nonzero;stroke:none" transform="matrix(1.33333 0 0 1.33333 108.179 134.521)"><tspan x="0 3.2975249 10.683981 14.880831 21.57181 24.569559 27.663237 35.24155 42.43615 47.328476 54.019455 57.113132 60.110882 66.993713 70.878799 77.761635 84.64447 91.527306 98.410133" y="0">Intel Core i5-2520M</tspan></text><text xml:space="preserve" style="font-variant:normal;font-weight:400;font-size:11.991px;font-family:&quot;Open Sans&quot;;-inkscape-font-specification:OpenSans-Regular;writing-mode:lr-tb;fill:#000;fill-opacity:1;fill-rule:nonzero;stroke:none" transform="matrix(1.33333 0 0 1.33333 1.86 154.515)"><tspan x="0 4.1968498 11.583306 14.581056 21.967512 28.250795 35.637253 42.316238" y="0">thinkpad</tspan></text><text xml:space="preserve" style="font-variant:normal;font-weight:400;font-size:11.991px;font-family:&quot;Open Sans&quot;;-inkscape-font-specification:OpenSans-Regular;writing-mode:lr-tb;fill:#000;fill-opacity:1;fill-rule:nonzero;stroke:none" transform="matrix(1.33333 0 0 1.33333 108.179 154.515)"><tspan x="0 3.2975249 10.683981 14.880831 21.57181 24.569559 27.663237 35.24155 42.43615 47.328476 54.019455 57.113132 60.110882 66.993713 70.878799 77.761635 84.64447 91.527306 98.410133" y="0">Intel Core i5-5300U</tspan></text><text xml:space="preserve" style="font-variant:normal;font-weight:400;font-size:11.991px;font-family:&quot;Open Sans&quot;;-inkscape-font-specification:OpenSans-Regular;writing-mode:lr-tb;fill:#000;fill-opacity:1;fill-rule:nonzero;stroke:none" transform="matrix(1.33333 0 0 1.33333 1.86 174.51)"><tspan x="0 6.2832842 9.2810345 15.972012 18.969763 26.356218 33.047195 38.74292 46.129375 53.515835 60.20681 65.099136" y="0">kleinesbuero</tspan></text><text xml:space="preserve" style="font-variant:normal;font-weight:400;font-size:11.991px;font-family:&quot;Open Sans&quot;;-inkscape-font-specification:OpenSans-Regular;writing-mode:lr-tb;fill:#000;fill-opacity:1;fill-rule:nonzero;stroke:none" transform="matrix(1.33333 0 0 1.33333 108.179 174.51)"><tspan x="0 8.8853312 16.079931 19.173609 27.867085 34.558064 40.253788 46.537071 50.733921 57.92852 65.31498 68.408653 79.200554 86.083389 92.966225 96.851311 103.03867 109.92149 116.80433 123.68716 130.56999 137.24899 140.34267 151.51828 154.51602 158.71288 161.80655 169.38487 180.17677 188.87024 191.96391 199.36237 205.35786 210.95766 217.64864 225.0351 228.12877 235.01161 238.10529 244.98811 251.87096 258.75378 265.63663" y="0">HP Desktop M01-F1000a mit AMD Ryzen 5 4600G</tspan></text><text xml:space="preserve" style="font-variant:normal;font-weight:400;font-size:11.991px;font-family:&quot;Open Sans&quot;;-inkscape-font-specification:OpenSans-Regular;writing-mode:lr-tb;fill:#000;fill-opacity:1;fill-rule:nonzero;stroke:none" transform="matrix(1.33333 0 0 1.33333 1.86 194.503)"><tspan x="0 5.9955001 12.686478 17.578806 26.871832 33.550819 36.548569 40.745419 48.131874 55.51833" y="0">verwaltung</tspan></text><text xml:space="preserve" style="font-variant:normal;font-weight:400;font-size:11.991px;font-family:&quot;Open Sans&quot;;-inkscape-font-specification:OpenSans-Regular;writing-mode:lr-tb;fill:#000;fill-opacity:1;fill-rule:nonzero;stroke:none" transform="matrix(1.33333 0 0 1.33333 108.179 194.503)"><tspan x="0 8.8853312 16.079931 19.173609 26.36821 33.047195 39.042698 42.040447 45.038197 48.035946 55.230545 62.617001 65.710678 74.404152 81.095131 86.790855 93.074142 97.270988 104.46559 111.85205 114.94572 121.54078 128.73538 135.61821 142.50104 146.38612 153.26897 160.15179 167.03464 173.91747 181.30392 187.88698 190.98065 202.15627 205.15402 209.35088 212.44455 220.02286 230.81476 239.50824 242.60191 250.00037 255.99586 261.59564 268.28662 275.6731 278.76675 285.6496 288.74329 295.62613 302.50894 309.39178 316.27463" y="0">HP Pavilion Desktop TP01-2003ng mit AMD Ryzen 3 5300G</tspan></text><text xml:space="preserve" style="font-variant:normal;font-weight:400;font-size:11.991px;font-family:&quot;Open Sans&quot;;-inkscape-font-specification:OpenSans-Regular;writing-mode:lr-tb;fill:#000;fill-opacity:1;fill-rule:nonzero;stroke:none" transform="matrix(1.33333 0 0 1.33333 1.86 214.496)"><tspan x="0 4.1968498 9.0891781 15.780156 21.475882 28.166859" y="0">tresen</tspan></text><text xml:space="preserve" style="font-variant:normal;font-weight:400;font-size:11.991px;font-family:&quot;Open Sans&quot;;-inkscape-font-specification:OpenSans-Regular;writing-mode:lr-tb;fill:#000;fill-opacity:1;fill-rule:nonzero;stroke:none" transform="matrix(1.33333 0 0 1.33333 108.179 214.496)"><tspan x="0 8.8853312 16.079931 19.173609 26.36821 33.047195 39.042698 42.040447 45.038197 48.035946 55.230545 62.617001 65.710678 74.404152 81.095131 86.790855 93.074142 97.270988 104.46559 111.85205 114.94572 121.54078 128.73538 135.61821 142.50104 146.38612 153.26897 160.15179 167.03464 173.91747 181.30392 187.88698 190.98065 202.15627 205.15402 209.35088 212.44455 220.02286 230.81476 239.50824 242.60191 250.00037 255.99586 261.59564 268.28662 275.6731 278.76675 285.6496 288.74329 295.62613 302.50894 309.39178 316.27463" y="0">HP Pavilion Desktop TP01-2308ng mit AMD Ryzen 5 5600G</tspan></text></svg>