<?xml version="1.0" encoding="UTF-8"?>
<svg xmlns="http://www.w3.org/2000/svg" xmlns:xlink="http://www.w3.org/1999/xlink" width="15" height="15" viewBox="0 0 15 15">
<path fill-rule="nonzero" fill="rgb(84.313726%, 9.803922%, 10.980392%)" fill-opacity="1" d="M 0.625 13.125 L 7.5 1.25 L 14.375 13.125 Z M 7.5 11.25 C 7.675781 11.25 7.824219 11.191406 7.945312 11.070312 C 8.066406 10.949219 8.125 10.800781 8.125 10.625 C 8.125 10.449219 8.066406 10.300781 7.945312 10.179688 C 7.824219 10.058594 7.675781 10 7.5 10 C 7.324219 10 7.175781 10.058594 7.054688 10.179688 C 6.933594 10.300781 6.875 10.449219 6.875 10.625 C 6.875 10.800781 6.933594 10.949219 7.054688 11.070312 C 7.175781 11.191406 7.324219 11.25 7.5 11.25 Z M 6.875 9.375 L 8.125 9.375 L 8.125 6.25 L 6.875 6.25 Z M 6.875 9.375 "/>
</svg>
